<svg version="1.1" xmlns="http://www.w3.org/2000/svg" viewBox="0 0 1343.344060706806 1804.0844625812238" width="1343.344060706806" height="1804.0844625812238">
  <!-- svg-source:excalidraw -->
  
  <defs>
    <style class="style-fonts">
      @font-face {
        font-family: "Virgil";
        src: url("https://excalidraw.com/Virgil.woff2");
      }
      @font-face {
        font-family: "Cascadia";
        src: url("https://excalidraw.com/Cascadia.woff2");
      }
    </style>
  </defs>
  <rect x="0" y="0" width="1343.344060706806" height="1804.0844625812238" fill="#ffffff"></rect><g stroke-linecap="round" transform="translate(395.7109141299022 10) rotate(0 313.1428985595704 892.0422312906119)"><path d="M0.1 0.04 C128.23 2.2, 255.36 2.23, 626.61 -0.58 M0.33 -0.31 C172.7 2.17, 345.12 2.42, 626.55 -0.24 M626.94 -0.69 C626.72 467.7, 626.71 935.29, 625.79 1784.31 M626.12 -0.05 C621.4 582.56, 621.55 1165.6, 626.48 1784.17 M625.57 1783.86 C486.8 1784.12, 348.44 1783.33, 0.56 1783.57 M626.54 1784.41 C489.47 1786.43, 352.55 1786.28, 0.32 1783.83 M0.21 1784.55 C2.03 1256.26, 1.28 727.84, 0.19 0.45 M-0.25 1784.18 C-5.71 1194.3, -5.69 604.85, -0.07 0.09" stroke="#000000" stroke-width="1" fill="none"></path></g><g stroke-linecap="round"><g transform="translate(395.13919782130847 42.04702730850522) rotate(0 313.80406925657763 -2.2845067258924274)"><path d="M0.72 0.25 C105.47 -0.36, 523.42 -4.01, 627.98 -4.81 M-0.37 -0.67 C104.32 -1.05, 522.66 -3.22, 627.32 -3.7" stroke="#000000" stroke-width="1" fill="none"></path></g></g><g transform="translate(621.9963755556835 14.189910609286471) rotate(0 83 11.5)"><text x="0" y="18" font-family="Helvetica, Segoe UI Emoji" font-size="20px" fill="#000000" text-anchor="start" style="white-space: pre;" direction="ltr">URL / Browser bar</text></g><g stroke-linecap="round"><g transform="translate(395.7106699892772 78.61848421768491) rotate(0 312.98135953793303 -3.789613880906245)"><path d="M0.29 -1.15 C104.98 -2.61, 522.46 -7.25, 626.97 -8.43 M-1.01 0.85 C103.67 -0.41, 521.69 -5.55, 626.39 -6.82" stroke="#000000" stroke-width="1" fill="none"></path></g></g><g transform="translate(409.4249033877147 49.118468958895846) rotate(0 33 11.5)"><text x="0" y="18" font-family="Helvetica, Segoe UI Emoji" font-size="20px" fill="#000000" text-anchor="start" style="white-space: pre;" direction="ltr">Navbar</text></g><g transform="translate(624.2821116396678 520.3327786512787) rotate(0 73 12.5)"><text x="0" y="18" font-family="Virgil, Segoe UI Emoji" font-size="20px" fill="#000000" text-anchor="start" style="white-space: pre;" direction="ltr">Book et Event</text></g><g transform="translate(465.99634503810535 187.9041745253021) rotate(0 38 12.5)"><text x="0" y="18" font-family="Virgil, Segoe UI Emoji" font-size="20px" fill="#000000" text-anchor="start" style="white-space: pre;" direction="ltr">Fornavn</text></g><g stroke-linecap="round" transform="translate(467.1392283388866 216.33279391006772) rotate(0 82.5714111328125 11.142837524414062)"><path d="M-0.96 -0.58 C59.51 0.41, 116.77 -2.65, 165.84 -0.35 M0.02 -0.27 C43.22 -1.5, 85.39 -0.82, 164.78 0.69 M166.01 1.17 C166.51 8.35, 163.88 19.54, 167.01 23.01 M164.74 0.28 C165.8 4.9, 165.8 9.32, 165.03 21.5 M166.35 23.53 C101.57 22.6, 37.74 24.48, -1.13 21.79 M165.29 21.92 C121.67 20.44, 77.08 20.93, -0.34 22.39 M-0.04 20.38 C-1.04 13.77, -1.33 5.2, 0.47 1.43 M-0.6 22.58 C-1.03 14.71, 0.94 6.41, 0.18 0.71" stroke="#000000" stroke-width="1" fill="none"></path></g><g transform="translate(474.99634503810535 217.54696627334897) rotate(0 40.5 10)"><text x="0" y="14" font-family="Virgil, Segoe UI Emoji" font-size="16px" fill="#495057" text-anchor="start" style="white-space: pre;" direction="ltr">indtast ...</text></g><g transform="translate(745.9963145205272 184.40420504288022) rotate(0 49.5 12.5)"><text x="0" y="18" font-family="Virgil, Segoe UI Emoji" font-size="20px" fill="#000000" text-anchor="start" style="white-space: pre;" direction="ltr">Efternavn</text></g><g stroke-linecap="round" transform="translate(747.1391978213085 212.83282442764585) rotate(0 82.5714111328125 11.142837524414062)"><path d="M1.99 -1.6 C42.57 -2.24, 81.86 1, 166.84 -1.72 M-0.89 -0.99 C43.89 -0.76, 87.44 -0.41, 165.74 0.44 M166.48 0.66 C163.71 3.5, 163.56 9.59, 163.64 22.58 M165.06 -0.26 C165.57 6.71, 164.44 12.51, 164.92 21.7 M165.91 22.26 C115.94 24.24, 65.09 24.77, 1.02 23.63 M164.46 21.62 C124.63 21.98, 82.34 22.55, -0.05 22.74 M1.33 22.43 C0.35 13.95, 1.14 7.23, 1.04 -0.83 M0.35 22.09 C0.47 14.31, 0.55 6.47, -0.37 -0.51" stroke="#000000" stroke-width="1" fill="none"></path></g><g transform="translate(754.9963145205272 214.0469967909271) rotate(0 40.5 10)"><text x="0" y="14" font-family="Virgil, Segoe UI Emoji" font-size="16px" fill="#495057" text-anchor="start" style="white-space: pre;" direction="ltr">indtast ...</text></g><g transform="translate(467.42496442287097 280.2612607069427) rotate(0 25.5 12.5)"><text x="0" y="18" font-family="Virgil, Segoe UI Emoji" font-size="20px" fill="#000000" text-anchor="start" style="white-space: pre;" direction="ltr">Email</text></g><g stroke-linecap="round" transform="translate(468.5678477236522 308.68988009170835) rotate(0 82.5714111328125 11.142837524414062)"><path d="M-0.92 -1.29 C37.74 0.76, 78.59 -1.26, 166.33 1.23 M0.62 0.7 C53.31 -1.54, 104.95 -1.58, 166.09 0.86 M167.13 -1.2 C163.3 8.28, 165.89 16.48, 164.76 20.67 M165.82 0.05 C164.27 6.87, 164.28 14.48, 165.71 22.31 M163.99 21.96 C100.28 20.39, 34.28 20.74, -1.84 23.28 M165.68 21.65 C104.98 21.67, 44.97 22.65, 0.84 22.68 M-0.4 21.16 C1.67 15.42, -0.53 4.81, -1.17 -1.63 M0.14 21.7 C0.05 17.67, -0.39 11.65, -0.46 -0.8" stroke="#000000" stroke-width="1" fill="none"></path></g><g transform="translate(476.42496442287097 309.9040524549896) rotate(0 40.5 10)"><text x="0" y="14" font-family="Virgil, Segoe UI Emoji" font-size="16px" fill="#495057" text-anchor="start" style="white-space: pre;" direction="ltr">indtast ...</text></g><g transform="translate(749.5678477236522 277.68988009170835) rotate(0 37.5 12.5)"><text x="0" y="18" font-family="Virgil, Segoe UI Emoji" font-size="20px" fill="#000000" text-anchor="start" style="white-space: pre;" direction="ltr">Telefon</text></g><g stroke-linecap="round" transform="translate(750.7107310244335 306.11849947647397) rotate(0 82.5714111328125 11.142837524414062)"><path d="M0.26 -0.79 C45.98 -0.1, 94.61 1.38, 164.07 0.58 M-0.2 -0.78 C37.15 1.29, 75.07 1.33, 165.88 0.1 M164.03 0.73 C163.48 8.02, 163.3 13.91, 166.68 22.29 M164.67 0.36 C165.57 6.82, 165.05 13.6, 166.13 22.43 M165.11 21.2 C121.49 20.73, 80.34 20.72, 1.98 22.54 M164.71 21.64 C125.11 21.8, 83.37 20.87, -0.93 23.05 M1.67 22.57 C1.55 17.63, -1.02 11.3, 0.34 -0.27 M-0.25 23.25 C0.13 12.91, -0.97 5.74, 0.73 0.1" stroke="#000000" stroke-width="1" fill="none"></path></g><g transform="translate(758.5678477236522 307.3326718397552) rotate(0 40.5 10)"><text x="0" y="14" font-family="Virgil, Segoe UI Emoji" font-size="16px" fill="#495057" text-anchor="start" style="white-space: pre;" direction="ltr">indtast ...</text></g><g stroke-linecap="round" transform="translate(458.46862988046087 623.0740269325731) rotate(0 11.4285888671875 9.14288330078125)"><path d="M22.86 9.14 C22.86 9.67, 22.8 10.21, 22.68 10.73 C22.57 11.25, 22.39 11.77, 22.17 12.27 C21.94 12.77, 21.66 13.26, 21.33 13.71 C21 14.17, 20.61 14.61, 20.18 15.02 C19.76 15.43, 19.28 15.81, 18.77 16.15 C18.27 16.49, 17.72 16.8, 17.14 17.06 C16.57 17.33, 15.96 17.55, 15.34 17.73 C14.72 17.92, 14.06 18.05, 13.41 18.15 C12.76 18.24, 12.09 18.29, 11.43 18.29 C10.77 18.29, 10.1 18.24, 9.44 18.15 C8.79 18.05, 8.14 17.92, 7.52 17.73 C6.9 17.55, 6.29 17.33, 5.71 17.06 C5.14 16.8, 4.59 16.49, 4.08 16.15 C3.58 15.81, 3.1 15.43, 2.67 15.02 C2.25 14.61, 1.86 14.17, 1.53 13.71 C1.2 13.26, 0.92 12.77, 0.69 12.27 C0.46 11.77, 0.29 11.25, 0.17 10.73 C0.06 10.21, 0 9.67, 0 9.14 C0 8.61, 0.06 8.08, 0.17 7.56 C0.29 7.03, 0.46 6.51, 0.69 6.02 C0.92 5.52, 1.2 5.03, 1.53 4.57 C1.86 4.11, 2.25 3.67, 2.67 3.27 C3.1 2.86, 3.58 2.48, 4.08 2.14 C4.59 1.8, 5.14 1.49, 5.71 1.22 C6.29 0.96, 6.9 0.73, 7.52 0.55 C8.14 0.37, 8.79 0.23, 9.44 0.14 C10.1 0.05, 10.77 0, 11.43 0 C12.09 0, 12.76 0.05, 13.41 0.14 C14.06 0.23, 14.72 0.37, 15.34 0.55 C15.96 0.73, 16.57 0.96, 17.14 1.22 C17.72 1.49, 18.27 1.8, 18.77 2.14 C19.28 2.48, 19.76 2.86, 20.18 3.27 C20.61 3.67, 21 4.11, 21.33 4.57 C21.66 5.03, 21.94 5.52, 22.17 6.02 C22.39 6.51, 22.57 7.03, 22.68 7.56 C22.8 8.08, 22.83 8.88, 22.86 9.14 C22.89 9.41, 22.89 8.88, 22.86 9.14" stroke="#495057" stroke-width="1" fill="none"></path></g><g stroke-linecap="round" transform="translate(510.46850781014837 622.5026157997606) rotate(0 11.4285888671875 9.14288330078125)"><path d="M22.86 9.14 C22.86 9.67, 22.8 10.21, 22.68 10.73 C22.57 11.25, 22.39 11.77, 22.17 12.27 C21.94 12.77, 21.66 13.26, 21.33 13.71 C21 14.17, 20.61 14.61, 20.18 15.02 C19.76 15.43, 19.28 15.81, 18.77 16.15 C18.27 16.49, 17.72 16.8, 17.14 17.06 C16.57 17.33, 15.96 17.55, 15.34 17.73 C14.72 17.92, 14.06 18.05, 13.41 18.15 C12.76 18.24, 12.09 18.29, 11.43 18.29 C10.77 18.29, 10.1 18.24, 9.44 18.15 C8.79 18.05, 8.14 17.92, 7.52 17.73 C6.9 17.55, 6.29 17.33, 5.71 17.06 C5.14 16.8, 4.59 16.49, 4.08 16.15 C3.58 15.81, 3.1 15.43, 2.67 15.02 C2.25 14.61, 1.86 14.17, 1.53 13.71 C1.2 13.26, 0.92 12.77, 0.69 12.27 C0.46 11.77, 0.29 11.25, 0.17 10.73 C0.06 10.21, 0 9.67, 0 9.14 C0 8.61, 0.06 8.08, 0.17 7.56 C0.29 7.03, 0.46 6.51, 0.69 6.02 C0.92 5.52, 1.2 5.03, 1.53 4.57 C1.86 4.11, 2.25 3.67, 2.67 3.27 C3.1 2.86, 3.58 2.48, 4.08 2.14 C4.59 1.8, 5.14 1.49, 5.71 1.22 C6.29 0.96, 6.9 0.73, 7.52 0.55 C8.14 0.37, 8.79 0.23, 9.44 0.14 C10.1 0.05, 10.77 0, 11.43 0 C12.09 0, 12.76 0.05, 13.41 0.14 C14.06 0.23, 14.72 0.37, 15.34 0.55 C15.96 0.73, 16.57 0.96, 17.14 1.22 C17.72 1.49, 18.27 1.8, 18.77 2.14 C19.28 2.48, 19.76 2.86, 20.18 3.27 C20.61 3.67, 21 4.11, 21.33 4.57 C21.66 5.03, 21.94 5.52, 22.17 6.02 C22.39 6.51, 22.57 7.03, 22.68 7.56 C22.8 8.08, 22.83 8.88, 22.86 9.14 C22.89 9.41, 22.89 8.88, 22.86 9.14" stroke="#495057" stroke-width="1" fill="none"></path></g><g transform="translate(641.2816843935741 112.6899411268646) rotate(0 59.5 12.5)"><text x="0" y="18" font-family="Virgil, Segoe UI Emoji" font-size="20px" fill="#000000" text-anchor="start" style="white-space: pre;" direction="ltr">Hvem er du?</text></g><g transform="translate(521.8967915015546 629.9313114784716) rotate(0 0.857177734375 2.5714263916015625)" stroke="none"><path fill="#000000" d="M 2.41,-0.80 Q 2.41,-0.80 2.62,-0.32 2.83,0.15 2.45,2.05 2.08,3.96 1.02,4.37 -0.03,4.79 -1.55,4.37 -3.06,3.95 -3.82,3.05 -4.59,2.15 -4.76,1.83 -4.94,1.52 -5.03,1.17 -5.12,0.82 -5.13,0.46 -5.14,0.10 -5.06,-0.24 -4.98,-0.59 -4.82,-0.91 -4.66,-1.24 -4.42,-1.51 -4.19,-1.79 -3.90,-2.00 -3.60,-2.21 -3.27,-2.34 -2.94,-2.48 -2.58,-2.53 -2.22,-2.58 -1.87,-2.54 -1.51,-2.50 -1.17,-2.38 -0.83,-2.26 -0.53,-2.06 -0.23,-1.87 0.01,-1.60 0.25,-1.34 1.06,0.07 1.87,1.50 0.54,1.47 -0.79,1.44 -0.36,3.06 0.05,4.68 1.28,4.61 2.50,4.54 2.21,3.50 1.92,2.45 0.93,3.19 -0.05,3.94 -0.47,3.58 -0.90,3.23 -1.19,2.76 -1.48,2.29 -1.61,1.75 -1.74,1.21 -1.68,0.65 -1.63,0.10 -1.40,-0.40 -1.17,-0.90 -0.80,-1.31 -0.42,-1.72 0.06,-1.98 0.54,-2.25 1.09,-2.34 1.64,-2.44 2.18,-2.36 2.73,-2.27 3.23,-2.02 3.72,-1.76 4.11,-1.37 4.49,-0.97 4.73,-0.47 4.97,0.02 5.04,0.58 5.10,1.13 4.99,1.67 4.88,2.21 4.60,2.69 4.32,3.17 3.90,3.53 3.48,3.90 2.97,4.11 2.45,4.32 1.90,4.36 1.34,4.39 0.81,4.25 0.27,4.11 -0.18,3.80 -0.64,3.50 -0.98,3.06 -1.32,2.62 -1.51,2.10 -1.69,1.57 -1.70,1.02 -1.70,0.46 -1.53,-0.05 -1.36,-0.58 -1.03,-1.03 -0.70,-1.47 -0.24,-1.79 0.20,-2.11 0.73,-2.26 1.27,-2.41 1.82,-2.39 2.38,-2.37 2.89,-2.17 3.41,-1.97 3.41,-1.97 3.41,-1.97 5.42,0.79 7.43,3.56 7.01,4.92 6.59,6.28 5.08,7.24 3.57,8.19 2.43,8.38 1.29,8.56 -0.28,7.77 -1.86,6.98 -2.45,4.63 -3.05,2.28 -2.35,1.22 -1.65,0.16 -0.59,-0.40 0.46,-0.97 2.14,-0.94 3.83,-0.92 4.41,0.01 5.00,0.95 5.27,2.06 5.55,3.17 4.71,4.52 3.86,5.88 2.07,6.52 0.28,7.17 -1.19,6.51 -2.66,5.84 -3.62,3.99 -4.59,2.15 -4.76,1.83 -4.94,1.52 -5.03,1.17 -5.12,0.82 -5.13,0.46 -5.14,0.10 -5.06,-0.24 -4.98,-0.59 -4.82,-0.91 -4.66,-1.24 -4.42,-1.51 -4.19,-1.79 -3.90,-2.00 -3.61,-2.21 -3.27,-2.34 -2.94,-2.48 -2.58,-2.53 -2.22,-2.58 -1.87,-2.54 -1.51,-2.50 -1.17,-2.38 -0.83,-2.26 -0.53,-2.06 -0.23,-1.87 0.01,-1.60 0.25,-1.34 -0.09,-0.88 -0.44,-0.42 -1.31,0.69 -2.17,1.81 -2.29,1.31 -2.41,0.80 -2.48,0.50 -2.54,0.20 -2.52,-0.10 -2.51,-0.41 -2.43,-0.70 -2.34,-1.00 -2.19,-1.26 -2.03,-1.53 -1.82,-1.75 -1.61,-1.97 -1.35,-2.13 -1.09,-2.30 -0.80,-2.40 -0.50,-2.49 -0.20,-2.52 0.10,-2.54 0.40,-2.49 0.71,-2.44 0.99,-2.32 1.27,-2.20 1.52,-2.02 1.76,-1.83 1.96,-1.59 2.15,-1.36 2.28,-1.08 2.41,-0.80 2.41,-0.80 L 2.41,-0.80 Z"></path></g><g transform="translate(452.0829647652806 665.1456907868911) rotate(0 25 12.5)"><text x="0" y="18" font-family="Virgil, Segoe UI Emoji" font-size="20px" fill="#000000" text-anchor="start" style="white-space: pre;" direction="ltr">Titel</text></g><g stroke-linecap="round" transform="translate(453.22584806606187 693.5743101716567) rotate(0 82.5714111328125 11.142837524414062)"><path d="M-1.72 -1.42 C59.71 2.01, 122.33 -0.19, 166.62 -1.09 M-0.46 -0.2 C49.88 -1.55, 101.87 -2.44, 165.17 -0.48 M164.31 1.21 C164.21 7.09, 166.16 16.09, 163.75 22.39 M164.76 0.13 C164.6 4.51, 165.18 8.35, 164.65 23.19 M167.13 23.5 C123.73 23.34, 86.06 24.26, -0.15 20.64 M164.63 22.66 C126.12 20.86, 85.37 21.53, 0.83 22.15 M-1.35 23.29 C-0.47 15.42, -0.66 11.1, -0.49 1.31 M0.56 22.94 C-0.91 18.17, -0.19 13.1, -0.4 0.28" stroke="#000000" stroke-width="1" fill="none"></path></g><g transform="translate(461.0829647652806 694.788482534938) rotate(0 40.5 10)"><text x="0" y="14" font-family="Virgil, Segoe UI Emoji" font-size="16px" fill="#495057" text-anchor="start" style="white-space: pre;" direction="ltr">indtast ...</text></g><g transform="translate(739.489397471562 588.9993320510089) rotate(0 74 12.5)"><text x="0" y="18" font-family="Virgil, Segoe UI Emoji" font-size="20px" fill="#000000" text-anchor="start" style="white-space: pre;" direction="ltr">Antal Personer</text></g><g stroke-linecap="round"><g transform="translate(28.477925192647547 476.9434344911065) rotate(0 -0.03424437035562278 -3.561906544309693)"><path d="M0 0 C-0.01 -1.19, -0.06 -5.94, -0.07 -7.12 M0 0 C-0.01 -1.19, -0.06 -5.94, -0.07 -7.12" stroke="#000000" stroke-width="1" fill="none"></path></g><g transform="translate(28.477925192647547 476.9434344911065) rotate(0 -0.03424437035562278 -3.561906544309693)"><path d="M1.18 -3.79 C0.87 -4.63, 0.55 -5.48, -0.07 -7.12 M1.18 -3.79 C0.81 -4.77, 0.44 -5.76, -0.07 -7.12" stroke="#000000" stroke-width="1" fill="none"></path></g><g transform="translate(28.477925192647547 476.9434344911065) rotate(0 -0.03424437035562278 -3.561906544309693)"><path d="M-1.25 -3.77 C-0.95 -4.62, -0.65 -5.47, -0.07 -7.12 M-1.25 -3.77 C-0.9 -4.76, -0.55 -5.75, -0.07 -7.12" stroke="#000000" stroke-width="1" fill="none"></path></g></g><g stroke-linecap="round"><g transform="translate(28.37517744879807 481.72118263094603) rotate(180 0.03424437035562278 -3.561906544309693)"><path d="M0 0 C0.01 -1.19, 0.06 -5.94, 0.07 -7.12 M0 0 C0.01 -1.19, 0.06 -5.94, 0.07 -7.12" stroke="#000000" stroke-width="1" fill="none"></path></g><g transform="translate(28.37517744879807 481.72118263094603) rotate(180 0.03424437035562278 -3.561906544309693)"><path d="M1.25 -3.77 C0.93 -4.68, 0.61 -5.6, 0.07 -7.12 M1.25 -3.77 C0.78 -5.1, 0.31 -6.43, 0.07 -7.12" stroke="#000000" stroke-width="1" fill="none"></path></g><g transform="translate(28.37517744879807 481.72118263094603) rotate(180 0.03424437035562278 -3.561906544309693)"><path d="M-1.18 -3.79 C-0.84 -4.7, -0.5 -5.61, 0.07 -7.12 M-1.18 -3.79 C-0.69 -5.11, -0.19 -6.44, 0.07 -7.12" stroke="#000000" stroke-width="1" fill="none"></path></g></g><g stroke-linecap="round" transform="translate(902.8907171840308 592.1603056744236) rotate(0 28.045544519886903 10.85711669921875)"><path d="M1.58 -1.16 C14.99 0.21, 27.51 -0.79, 54.46 -1.97 M0.53 -0.89 C12.56 -1.08, 24.29 -0.63, 56.72 -0.81 M56.03 -1.53 C55.19 7.18, 55.85 18.59, 54.86 22.49 M56.33 -0.96 C56.51 6.37, 56.57 13.48, 55.79 21.82 M54.72 20.75 C40.93 20.75, 24.34 20.68, -0.78 21.32 M56.32 21.99 C35.1 21.02, 15.27 20.86, 0.25 20.79 M1.66 20.33 C1.55 15.46, 0.78 11.64, -1.06 -1.94 M0.91 22.54 C0.87 15.31, 0.7 9.3, -0.04 0.27" stroke="#000000" stroke-width="1" fill="none"></path></g><g transform="translate(910.7478338832495 592.8030363873143) rotate(0 6.5 10)"><text x="0" y="14" font-family="Virgil, Segoe UI Emoji" font-size="16px" fill="#495057" text-anchor="start" style="white-space: pre;" direction="ltr">0</text></g><g stroke-linecap="round"><g transform="translate(947.6725237857062 602.9355662819429) rotate(0 -0.03424437035562278 -3.561906544309693)"><path d="M0 0 C-0.01 -1.19, -0.06 -5.94, -0.07 -7.12 M0 0 C-0.01 -1.19, -0.06 -5.94, -0.07 -7.12" stroke="#000000" stroke-width="1" fill="none"></path></g><g transform="translate(947.6725237857062 602.9355662819429) rotate(0 -0.03424437035562278 -3.561906544309693)"><path d="M1.18 -3.79 C0.78 -4.85, 0.39 -5.91, -0.07 -7.12 M1.18 -3.79 C0.86 -4.65, 0.54 -5.51, -0.07 -7.12" stroke="#000000" stroke-width="1" fill="none"></path></g><g transform="translate(947.6725237857062 602.9355662819429) rotate(0 -0.03424437035562278 -3.561906544309693)"><path d="M-1.25 -3.77 C-0.88 -4.83, -0.5 -5.9, -0.07 -7.12 M-1.25 -3.77 C-0.95 -4.63, -0.64 -5.5, -0.07 -7.12" stroke="#000000" stroke-width="1" fill="none"></path></g></g><g stroke-linecap="round"><g transform="translate(947.5697760418569 607.7133144217827) rotate(180 0.03424437035562278 -3.561906544309693)"><path d="M0 0 C0.01 -1.19, 0.06 -5.94, 0.07 -7.12 M0 0 C0.01 -1.19, 0.06 -5.94, 0.07 -7.12" stroke="#000000" stroke-width="1" fill="none"></path></g><g transform="translate(947.5697760418569 607.7133144217827) rotate(180 0.03424437035562278 -3.561906544309693)"><path d="M1.25 -3.77 C0.88 -4.84, 0.5 -5.91, 0.07 -7.12 M1.25 -3.77 C0.95 -4.63, 0.64 -5.5, 0.07 -7.12" stroke="#000000" stroke-width="1" fill="none"></path></g><g transform="translate(947.5697760418569 607.7133144217827) rotate(180 0.03424437035562278 -3.561906544309693)"><path d="M-1.18 -3.79 C-0.78 -4.85, -0.38 -5.92, 0.07 -7.12 M-1.18 -3.79 C-0.86 -4.65, -0.54 -5.51, 0.07 -7.12" stroke="#000000" stroke-width="1" fill="none"></path></g></g><g transform="translate(458.44302325834803 590.496157586957) rotate(0 72.5 12.5)"><text x="0" y="18" font-family="Virgil, Segoe UI Emoji" font-size="20px" fill="#000000" text-anchor="start" style="white-space: pre;" direction="ltr">åbent / lukket</text></g><g transform="translate(452.19536659878645 760.1470067013779) rotate(0 48 12.5)"><text x="0" y="18" font-family="Virgil, Segoe UI Emoji" font-size="20px" fill="#000000" text-anchor="start" style="white-space: pre;" direction="ltr">Start tid</text></g><g transform="translate(745.3546480171926 772.907884155948) rotate(0 39.5 12.5)"><text x="0" y="18" font-family="Virgil, Segoe UI Emoji" font-size="20px" fill="#000000" text-anchor="start" style="white-space: pre;" direction="ltr">Slut tid</text></g><g stroke-linecap="round" transform="translate(453.2566976835018 796.169893295199) rotate(0 28.045544519886903 10.85711669921875)"><path d="M1.19 -1.42 C11.94 -1.01, 27.67 0.38, 57.01 -0.91 M-0.48 0.56 C21.57 0.21, 41.32 0, 56.93 0.11 M55.71 1.88 C57.86 6.23, 56.84 18.03, 56.67 22.79 M56.78 0.55 C55.91 6.42, 56.82 11.86, 55.4 21.48 M56.54 21.14 C41.07 23.33, 24.19 22.07, -0.85 23.17 M57.03 21.59 C43.42 21.07, 28.65 22.02, -0.31 22.32 M0.83 21.56 C-1.22 15.9, 0.82 10.53, -1.38 -1.46 M-0.25 21.51 C-0.64 14.18, 1.11 5.36, -0.38 -0.06" stroke="#000000" stroke-width="1" fill="none"></path></g><g transform="translate(461.11381438272053 796.8126240080896) rotate(0 6.5 10)"><text x="0" y="14" font-family="Virgil, Segoe UI Emoji" font-size="16px" fill="#495057" text-anchor="start" style="white-space: pre;" direction="ltr">0</text></g><g stroke-linecap="round"><g transform="translate(498.03850428517705 806.9451539027182) rotate(0 -0.03424437035562278 -3.561906544309693)"><path d="M0 0 C-0.01 -1.19, -0.06 -5.94, -0.07 -7.12 M0 0 C-0.01 -1.19, -0.06 -5.94, -0.07 -7.12" stroke="#000000" stroke-width="1" fill="none"></path></g><g transform="translate(498.03850428517705 806.9451539027182) rotate(0 -0.03424437035562278 -3.561906544309693)"><path d="M1.18 -3.79 C0.88 -4.6, 0.57 -5.42, -0.07 -7.12 M1.18 -3.79 C0.85 -4.68, 0.51 -5.57, -0.07 -7.12" stroke="#000000" stroke-width="1" fill="none"></path></g><g transform="translate(498.03850428517705 806.9451539027182) rotate(0 -0.03424437035562278 -3.561906544309693)"><path d="M-1.25 -3.77 C-0.97 -4.58, -0.68 -5.4, -0.07 -7.12 M-1.25 -3.77 C-0.94 -4.66, -0.62 -5.56, -0.07 -7.12" stroke="#000000" stroke-width="1" fill="none"></path></g></g><g stroke-linecap="round"><g transform="translate(497.9357565413278 811.7229020425578) rotate(180 0.03424437035562278 -3.561906544309693)"><path d="M0 0 C0.01 -1.19, 0.06 -5.94, 0.07 -7.12 M0 0 C0.01 -1.19, 0.06 -5.94, 0.07 -7.12" stroke="#000000" stroke-width="1" fill="none"></path></g><g transform="translate(497.9357565413278 811.7229020425578) rotate(180 0.03424437035562278 -3.561906544309693)"><path d="M1.25 -3.77 C0.83 -4.97, 0.4 -6.18, 0.07 -7.12 M1.25 -3.77 C0.96 -4.61, 0.66 -5.46, 0.07 -7.12" stroke="#000000" stroke-width="1" fill="none"></path></g><g transform="translate(497.9357565413278 811.7229020425578) rotate(180 0.03424437035562278 -3.561906544309693)"><path d="M-1.18 -3.79 C-0.73 -4.99, -0.28 -6.19, 0.07 -7.12 M-1.18 -3.79 C-0.87 -4.63, -0.55 -5.47, 0.07 -7.12" stroke="#000000" stroke-width="1" fill="none"></path></g></g><g stroke-linecap="round" transform="translate(524.1215969018457 796.3988525643656) rotate(0 28.045544519886903 10.85711669921875)"><path d="M0.07 0.92 C10.64 1.37, 21.68 -0.65, 55.14 1.11 M-0.18 0.84 C21.88 0.74, 44.51 -0.56, 55.9 0.94 M57.99 0.58 C56.96 8.09, 56.48 18.09, 57.47 22.81 M55.18 -0.69 C55.87 5.8, 55.94 12.12, 56.32 21.43 M56.35 20.86 C38.51 20.43, 16.19 20.66, 1.87 21.46 M56.67 21.4 C35.45 21.04, 12.7 21.86, 0.41 21.64 M0.21 20.33 C-1.45 18.4, -1.73 10.89, -0.5 -0.42 M0.29 21.33 C-0.23 17.54, 0.53 11.4, 0.3 0.55" stroke="#000000" stroke-width="1" fill="none"></path></g><g transform="translate(531.9787136010644 797.0415832772562) rotate(0 6.5 10)"><text x="0" y="14" font-family="Virgil, Segoe UI Emoji" font-size="16px" fill="#495057" text-anchor="start" style="white-space: pre;" direction="ltr">0</text></g><g stroke-linecap="round"><g transform="translate(568.9034035035212 807.174113171885) rotate(0 -0.03424437035562278 -3.561906544309693)"><path d="M0 0 C-0.01 -1.19, -0.06 -5.94, -0.07 -7.12 M0 0 C-0.01 -1.19, -0.06 -5.94, -0.07 -7.12" stroke="#000000" stroke-width="1" fill="none"></path></g><g transform="translate(568.9034035035212 807.174113171885) rotate(0 -0.03424437035562278 -3.561906544309693)"><path d="M1.18 -3.79 C0.81 -4.79, 0.43 -5.8, -0.07 -7.12 M1.18 -3.79 C0.81 -4.77, 0.44 -5.76, -0.07 -7.12" stroke="#000000" stroke-width="1" fill="none"></path></g><g transform="translate(568.9034035035212 807.174113171885) rotate(0 -0.03424437035562278 -3.561906544309693)"><path d="M-1.25 -3.77 C-0.9 -4.78, -0.54 -5.79, -0.07 -7.12 M-1.25 -3.77 C-0.9 -4.76, -0.55 -5.75, -0.07 -7.12" stroke="#000000" stroke-width="1" fill="none"></path></g></g><g stroke-linecap="round"><g transform="translate(568.8006557596719 811.9518613117244) rotate(180 0.03424437035562278 -3.561906544309693)"><path d="M0 0 C0.01 -1.19, 0.06 -5.94, 0.07 -7.12 M0 0 C0.01 -1.19, 0.06 -5.94, 0.07 -7.12" stroke="#000000" stroke-width="1" fill="none"></path></g><g transform="translate(568.8006557596719 811.9518613117244) rotate(180 0.03424437035562278 -3.561906544309693)"><path d="M1.25 -3.77 C0.89 -4.78, 0.53 -5.8, 0.07 -7.12 M1.25 -3.77 C0.92 -4.71, 0.58 -5.66, 0.07 -7.12" stroke="#000000" stroke-width="1" fill="none"></path></g><g transform="translate(568.8006557596719 811.9518613117244) rotate(180 0.03424437035562278 -3.561906544309693)"><path d="M-1.18 -3.79 C-0.8 -4.8, -0.42 -5.81, 0.07 -7.12 M-1.18 -3.79 C-0.83 -4.73, -0.48 -5.67, 0.07 -7.12" stroke="#000000" stroke-width="1" fill="none"></path></g></g><g stroke-linecap="round" transform="translate(739.3179238266889 806.5264783174065) rotate(0 28.045544519886903 10.85711669921875)"><path d="M1.42 1.93 C14.54 0.02, 26.99 0.35, 57.46 1.91 M0.32 0.32 C17.16 1.28, 36.84 -0.24, 55.52 -0.43 M57.47 -0.37 C54.95 8.16, 57.4 14.12, 54.33 20.02 M56.88 -0.43 C55.87 5.01, 55.87 9.75, 56.08 21.29 M55.41 23.39 C45.92 20.35, 31.78 21.8, -0.1 20.71 M55.85 22.59 C43.51 21.71, 33.3 21.64, -0.59 21.62 M-0.14 20 C-1.9 17.99, 1.64 9.6, -0.9 0.63 M0.15 22.22 C-0.42 13.68, -0.82 6.31, -0.87 0.49" stroke="#000000" stroke-width="1" fill="none"></path></g><g transform="translate(747.1750405259077 807.1692090302971) rotate(0 6.5 10)"><text x="0" y="14" font-family="Virgil, Segoe UI Emoji" font-size="16px" fill="#495057" text-anchor="start" style="white-space: pre;" direction="ltr">0</text></g><g stroke-linecap="round"><g transform="translate(784.0997304283642 817.3017389249263) rotate(0 -0.03424437035562278 -3.561906544309693)"><path d="M0 0 C-0.01 -1.19, -0.06 -5.94, -0.07 -7.12 M0 0 C-0.01 -1.19, -0.06 -5.94, -0.07 -7.12" stroke="#000000" stroke-width="1" fill="none"></path></g><g transform="translate(784.0997304283642 817.3017389249263) rotate(0 -0.03424437035562278 -3.561906544309693)"><path d="M1.18 -3.79 C0.92 -4.5, 0.65 -5.2, -0.07 -7.12 M1.18 -3.79 C0.91 -4.51, 0.64 -5.22, -0.07 -7.12" stroke="#000000" stroke-width="1" fill="none"></path></g><g transform="translate(784.0997304283642 817.3017389249263) rotate(0 -0.03424437035562278 -3.561906544309693)"><path d="M-1.25 -3.77 C-1 -4.48, -0.75 -5.19, -0.07 -7.12 M-1.25 -3.77 C-1 -4.49, -0.74 -5.21, -0.07 -7.12" stroke="#000000" stroke-width="1" fill="none"></path></g></g><g stroke-linecap="round"><g transform="translate(783.9969826845149 822.0794870647661) rotate(180 0.03424437035562278 -3.561906544309693)"><path d="M0 0 C0.01 -1.19, 0.06 -5.94, 0.07 -7.12 M0 0 C0.01 -1.19, 0.06 -5.94, 0.07 -7.12" stroke="#000000" stroke-width="1" fill="none"></path></g><g transform="translate(783.9969826845149 822.0794870647661) rotate(180 0.03424437035562278 -3.561906544309693)"><path d="M1.25 -3.77 C0.81 -5.01, 0.37 -6.26, 0.07 -7.12 M1.25 -3.77 C0.86 -4.88, 0.47 -5.99, 0.07 -7.12" stroke="#000000" stroke-width="1" fill="none"></path></g><g transform="translate(783.9969826845149 822.0794870647661) rotate(180 0.03424437035562278 -3.561906544309693)"><path d="M-1.18 -3.79 C-0.72 -5.03, -0.25 -6.26, 0.07 -7.12 M-1.18 -3.79 C-0.77 -4.9, -0.35 -6, 0.07 -7.12" stroke="#000000" stroke-width="1" fill="none"></path></g></g><g stroke-linecap="round" transform="translate(808.8093853610833 806.8702351522076) rotate(0 28.045544519886903 10.85711669921875)"><path d="M0.81 0.99 C14.4 0.11, 29.25 -1.12, 55.91 -0.84 M-0.67 -0.35 C11 0.11, 22.75 0.14, 56.26 0.67 M56.94 1.5 C54.45 6.1, 56.81 10.26, 54.44 21.91 M57.07 -0.02 C57.17 6.33, 56.24 10.67, 55.94 20.76 M54.1 19.87 C42.55 19.95, 25.42 19.96, -0.29 20.98 M56.26 21.62 C41.17 22.44, 25.8 22.16, 0.94 22.55 M1.06 23.12 C-1.67 15.18, -0.16 11.2, 1.91 -1.91 M-0.03 22.58 C-0.14 17.9, -0.72 13.05, -0.52 -0.26" stroke="#000000" stroke-width="1" fill="none"></path></g><g transform="translate(816.666502060302 807.5129658650982) rotate(0 6.5 10)"><text x="0" y="14" font-family="Virgil, Segoe UI Emoji" font-size="16px" fill="#495057" text-anchor="start" style="white-space: pre;" direction="ltr">0</text></g><g stroke-linecap="round"><g transform="translate(853.5911919627588 817.6454957597267) rotate(0 -0.03424437035562278 -3.561906544309693)"><path d="M0 0 C-0.01 -1.19, -0.06 -5.94, -0.07 -7.12 M0 0 C-0.01 -1.19, -0.06 -5.94, -0.07 -7.12" stroke="#000000" stroke-width="1" fill="none"></path></g><g transform="translate(853.5911919627588 817.6454957597267) rotate(0 -0.03424437035562278 -3.561906544309693)"><path d="M1.18 -3.79 C0.9 -4.54, 0.62 -5.29, -0.07 -7.12 M1.18 -3.79 C0.81 -4.78, 0.44 -5.78, -0.07 -7.12" stroke="#000000" stroke-width="1" fill="none"></path></g><g transform="translate(853.5911919627588 817.6454957597267) rotate(0 -0.03424437035562278 -3.561906544309693)"><path d="M-1.25 -3.77 C-0.99 -4.52, -0.72 -5.28, -0.07 -7.12 M-1.25 -3.77 C-0.9 -4.77, -0.55 -5.77, -0.07 -7.12" stroke="#000000" stroke-width="1" fill="none"></path></g></g><g stroke-linecap="round"><g transform="translate(853.4884442189095 822.4232438995665) rotate(180 0.03424437035562278 -3.561906544309693)"><path d="M0 0 C0.01 -1.19, 0.06 -5.94, 0.07 -7.12 M0 0 C0.01 -1.19, 0.06 -5.94, 0.07 -7.12" stroke="#000000" stroke-width="1" fill="none"></path></g><g transform="translate(853.4884442189095 822.4232438995665) rotate(180 0.03424437035562278 -3.561906544309693)"><path d="M1.25 -3.77 C0.85 -4.91, 0.45 -6.05, 0.07 -7.12 M1.25 -3.77 C0.98 -4.55, 0.7 -5.33, 0.07 -7.12" stroke="#000000" stroke-width="1" fill="none"></path></g><g transform="translate(853.4884442189095 822.4232438995665) rotate(180 0.03424437035562278 -3.561906544309693)"><path d="M-1.18 -3.79 C-0.76 -4.92, -0.33 -6.06, 0.07 -7.12 M-1.18 -3.79 C-0.89 -4.56, -0.6 -5.34, 0.07 -7.12" stroke="#000000" stroke-width="1" fill="none"></path></g></g><g transform="translate(448.3583803203244 876.1496689163107) rotate(0 41.5 12.5)"><text x="0" y="18" font-family="Virgil, Segoe UI Emoji" font-size="20px" fill="#000000" text-anchor="start" style="white-space: pre;" direction="ltr">Catering</text></g><g stroke-linecap="round" transform="translate(449.0902864617092 908.0355310330963) rotate(0 94.07466860542252 11.677314027257694)"><path d="M-0.69 1 C57.45 0.54, 115.07 -1.38, 188.32 1.05 M0.89 -0.59 C41.06 -2.05, 80.62 -2.12, 187.24 -0.9 M186.28 -0.34 C189.39 6.76, 189.77 15.28, 187.12 24.86 M187.91 -0.57 C187.33 4.58, 187.75 8.68, 187.78 24.32 M186.37 22.63 C123.46 21.97, 62.14 21.55, -0.1 25.15 M188.37 23.57 C117.85 22.85, 45.95 22.63, 0.6 24.24 M-0.22 22.86 C1.19 16.79, -1.92 12.2, 1.3 -1.97 M0.91 23.17 C-0.14 18.68, -0.94 14.08, 0.14 -0.4" stroke="#000000" stroke-width="1" fill="none"></path></g><g stroke-linecap="round" transform="translate(636.8015204024942 907.9973259639933) rotate(0 15.798703153432143 11.677265114788383)"><path d="M1.05 -1.71 C7.47 1.85, 18.01 -1.21, 32.92 -0.58 M-0.9 0.63 C8.37 -0.09, 16.89 0.12, 32.28 -0.86 M33.1 -1.89 C30.58 9.61, 30.92 16.95, 30.16 22.91 M32.56 0.34 C31.78 5.57, 30.5 12.25, 30.64 23.35 M33.39 24.88 C21.28 22.03, 14.55 23.77, 1.07 24.81 M32.49 22.69 C24.14 24.01, 15.92 23.3, 0.63 22.8 M-1.97 21.52 C0.13 18.3, 1.85 13.28, -0.26 0.38 M-0.4 23.02 C-0.61 19.37, 0.38 12.72, 0.68 -0.7" stroke="#000000" stroke-width="1" fill="none"></path></g><g stroke-linecap="round"><g transform="translate(651.6835167221618 911.382642442868) rotate(0 0.39525946566300263 6.467012091878928)"><path d="M0.72 -0.18 C0.8 2.06, 1.16 10.8, 1.15 12.93 M-0.36 -1.32 C-0.45 1.13, 0.4 11.79, 0.44 14.25" stroke="#000000" stroke-width="1" fill="none"></path></g><g transform="translate(651.6835167221618 911.382642442868) rotate(0 0.39525946566300263 6.467012091878928)"><path d="M-1.47 14.95 L-3.1 7.72 L4.14 6.73 L-1.19 13.01" stroke="none" stroke-width="0" fill="#000000" fill-rule="evenodd"></path><path d="M0.35 14.51 C-0.87 12.16, -2.19 10.25, -3.33 8.55 M0.27 14.32 C-0.34 12.68, -1.31 10.87, -2.95 8.37 M-2.28 8.87 C-0.1 8.16, 1.9 8.51, 2.44 7.78 M-2.97 8.62 C-0.83 8.38, 1.82 8.19, 3.04 7.86 M2.82 7.48 C1.57 9.81, 2.09 11.61, 0.2 14.57 M2.88 7.83 C1.7 10.74, 0.7 13.19, 0.39 14.57 M0.44 14.25 C0.44 14.25, 0.44 14.25, 0.44 14.25 M0.44 14.25 C0.44 14.25, 0.44 14.25, 0.44 14.25" stroke="#000000" stroke-width="1" fill="none"></path></g></g><g transform="translate(586.2032714037964 906.8259340985865) rotate(0 25 12.5)"><text x="0" y="18" font-family="Virgil, Segoe UI Emoji" font-size="20px" fill="#000000" text-anchor="start" style="white-space: pre;" direction="ltr">0 kr.</text></g><g transform="translate(454.77509149200364 905.6566547087864) rotate(0 23 12.5)"><text x="0" y="18" font-family="Virgil, Segoe UI Emoji" font-size="20px" fill="#000000" text-anchor="start" style="white-space: pre;" direction="ltr">ingen</text></g><g stroke-linecap="round" transform="translate(462.8103408107115 1144.8831514555347) rotate(0 238.54840145675303 70.6877733819673)"><path d="M0.46 0.61 C158.5 -1.02, 318.6 0.33, 477.82 -0.44 M0.23 0.33 C176.14 0.12, 352.56 0.59, 476.98 0.38 M479.09 0.6 C477.21 30.5, 474.35 65.89, 476.99 140.1 M477.13 0.26 C477.85 38.21, 477.22 77.07, 477.14 142.34 M477.86 141.35 C346.46 142.88, 214.01 143.07, 0.69 141.85 M476.67 141.35 C352.37 141.04, 228.12 141.13, 0.15 141.45 M-0.68 142.01 C-1.04 101.55, -2.33 59.09, -0.39 -0.02 M-0.22 140.41 C-1.05 111.81, -1.34 83.72, 0.56 0.25" stroke="#000000" stroke-width="1" fill="none"></path></g><g transform="translate(462.07968168407416 1117.2523289679557) rotate(0 56.99999999999997 12.5)"><text x="0" y="18" font-family="Virgil, Segoe UI Emoji" font-size="20px" fill="#000000" text-anchor="start" style="white-space: pre;" direction="ltr">Beskrivelse:</text></g><g transform="translate(472.21717467786027 1154.68748220441) rotate(0 55.5 10)"><text x="0" y="14" font-family="Virgil, Segoe UI Emoji" font-size="16px" fill="#000000" text-anchor="start" style="white-space: pre;" direction="ltr">Lorem ipsum....</text></g><g stroke-linecap="round" transform="translate(460.8925727716685 1355.8754274389435) rotate(0 238.54840145675303 70.6877733819673)"><path d="M-0.13 0.58 C116.03 0.08, 231.04 -0.2, 477.44 -0.19 M-0.27 0.26 C166.66 -0.1, 333.72 -0.31, 477.41 -0.16 M476.57 1.4 C478.32 36.66, 478.48 72.62, 477.8 142.79 M476.93 -0.97 C476.91 33.32, 476.1 65.89, 477.32 141.58 M476.31 141.6 C288.11 139.73, 100.13 140.28, 0.83 140.59 M476.94 141.24 C313.85 140.61, 149.82 140.27, 0.05 141.11 M-0.78 141.57 C1.07 105.91, 1.67 70.15, 1.15 -1.52 M0.58 140.95 C1.39 92.78, 1.63 42.47, 0.98 0.56" stroke="#000000" stroke-width="1" fill="none"></path></g><g transform="translate(460.161913645031 1328.2446049513642) rotate(0 64.50000000000003 12.5)"><text x="0" y="18" font-family="Virgil, Segoe UI Emoji" font-size="20px" fill="#000000" text-anchor="start" style="white-space: pre;" direction="ltr">Kommentarer:</text></g><g transform="translate(470.2994066388171 1365.6797581878186) rotate(0 55.5 10)"><text x="0" y="14" font-family="Virgil, Segoe UI Emoji" font-size="16px" fill="#000000" text-anchor="start" style="white-space: pre;" direction="ltr">Lorem ipsum....</text></g><g transform="translate(896.4351010248706 1569.3159294123495) rotate(0 18 10)"><text x="0" y="14" font-family="Virgil, Segoe UI Emoji" font-size="16px" fill="#000000" text-anchor="start" style="white-space: pre;" direction="ltr">Pris:</text></g><g stroke-linecap="round"><g transform="translate(483.26784037948835 1589.832489188717) rotate(0 225.60827607503433 0.6898760387164202)"><path d="M0.85 0.83 C75.9 1.07, 376.26 1.6, 451.38 1.76 M-0.16 0.22 C74.59 0.05, 375.03 -0.71, 450.17 -0.21" stroke="#000000" stroke-width="1" fill="none"></path></g></g><g transform="translate(485.82502050943435 1602.924590910099) rotate(0 28 10)"><text x="0" y="14" font-family="Virgil, Segoe UI Emoji" font-size="16px" fill="#000000" text-anchor="start" style="white-space: pre;" direction="ltr">Lokale:</text></g><g transform="translate(481.7529314452074 1628.3276060927494) rotate(0 35.5 10)"><text x="0" y="14" font-family="Virgil, Segoe UI Emoji" font-size="16px" fill="#000000" text-anchor="start" style="white-space: pre;" direction="ltr">Catering:</text></g><g transform="translate(638.1598493711101 1630.688291550527) rotate(0 108.5 10)"><text x="0" y="14" font-family="Virgil, Segoe UI Emoji" font-size="16px" fill="#000000" text-anchor="start" style="white-space: pre;" direction="ltr">antal pers. X kuvert pris =</text></g><g transform="translate(899.3577180216839 1601.4634092249769) rotate(0 19 10)"><text x="0" y="14" font-family="Virgil, Segoe UI Emoji" font-size="16px" fill="#000000" text-anchor="start" style="white-space: pre;" direction="ltr">1500</text></g><g transform="translate(893.5087628922398 1631.067377842845) rotate(0 22 10)"><text x="0" y="14" font-family="Virgil, Segoe UI Emoji" font-size="16px" fill="#000000" text-anchor="start" style="white-space: pre;" direction="ltr">7000</text></g><g stroke-linecap="round"><g transform="translate(478.1534801195962 1670.931652749562) rotate(0 228.3167064490865 -1.4018557966194294)"><path d="M0.51 0.69 C76.19 0.13, 379.36 -2.98, 455.18 -3.49 M-0.68 0 C75.25 -0.39, 380.89 -1.51, 457.31 -2.25" stroke="#000000" stroke-width="1" fill="none"></path></g></g><g transform="translate(483.2678208697523 1674.1602757206658) rotate(0 31.5 10)"><text x="0" y="14" font-family="Virgil, Segoe UI Emoji" font-size="16px" fill="#000000" text-anchor="start" style="white-space: pre;" direction="ltr">TOTAL:</text></g><g transform="translate(892.782000489045 1676.7175729090286) rotate(0 23 10)"><text x="0" y="14" font-family="Virgil, Segoe UI Emoji" font-size="16px" fill="#000000" text-anchor="start" style="white-space: pre;" direction="ltr">8500</text></g><g stroke-linecap="round" transform="translate(733.811456550448 693.4509759076602) rotate(0 94.07466860542252 11.677314027257694)"><path d="M-1.24 -1.16 C71.18 -1.02, 144.72 0.65, 189.58 -1.73 M0.45 -0.54 C50 -2.48, 100.43 -1.03, 188.57 -0.01 M189.43 0.31 C189.26 8.49, 188.32 15.22, 188.44 22.38 M188.55 0.66 C188.56 8.48, 187.81 15.04, 187.22 24.25 M188.62 23.85 C123.33 25.07, 57.89 24.8, 1.75 22.44 M188.31 22.48 C135.91 23.37, 81.58 23.07, 0.95 23.74 M-0.27 23.99 C-1.25 16.59, -0.88 9.72, -1.19 0.64 M0.89 23.36 C-0.52 15.9, 1.05 10.91, -0.99 0.02" stroke="#000000" stroke-width="1" fill="none"></path></g><g stroke-linecap="round" transform="translate(921.5226904912332 693.4127708385572) rotate(0 15.798703153432143 11.677265114788383)"><path d="M-1.16 -0.66 C9.55 1.23, 20.97 1.63, 29.87 -0.63 M-0.54 -0.54 C9.36 -0.78, 20.9 0.28, 31.59 0.61 M31.91 0.97 C31.45 8.39, 29.74 17, 30.63 23.82 M32.25 0.4 C32.43 6.77, 31.44 13.31, 32.49 23.82 M32.09 23.75 C23.47 23.59, 13.55 25.18, -0.91 22.99 M30.72 24.16 C24.08 22.93, 16.01 24.35, 0.38 23.14 M0.64 22.23 C-0.35 14.29, -0.7 5.54, 0.64 -0.31 M0 22.77 C-0.7 17.98, 0.96 9.66, 0.02 0.17" stroke="#000000" stroke-width="1" fill="none"></path></g><g transform="translate(739.4962615807425 691.0720995833503) rotate(0 61 12.5)"><text x="0" y="18" font-family="Virgil, Segoe UI Emoji" font-size="20px" fill="#000000" text-anchor="start" style="white-space: pre;" direction="ltr">2022-12-24</text></g><g transform="translate(734.6426428861541 663.9096758845693) rotate(0 61 12.5)"><text x="0" y="18" font-family="Virgil, Segoe UI Emoji" font-size="20px" fill="#000000" text-anchor="start" style="white-space: pre;" direction="ltr">Dag / Dato</text></g><g stroke-linecap="round" transform="translate(10 421.16099616703934) rotate(0 153.34820787926856 128.55799449323268)"><path d="M0.01 -0.65 C77.92 -0.69, 155.78 -1.18, 305.35 0.01 M0.03 -0.18 C120.13 -0.01, 238.92 -0.6, 306.7 -0.43 M305.82 1.6 C307.87 56.77, 308.07 115.04, 307.5 255.69 M307.42 0.35 C306.43 64.38, 306.51 128.48, 307.06 256.47 M305.88 257.43 C219.73 255.36, 133.58 255.52, -0.6 255.86 M307.13 256.79 C208.34 259.76, 110.96 259.12, -0.6 257.48 M-1.41 258.13 C-1.17 156.42, 0.95 53.53, -1.45 -1.46 M-0.67 257.63 C2.14 172.7, 2.13 86.28, -0.43 0.68" stroke="#000000" stroke-width="1" fill="none"></path></g><g transform="translate(19.65278197082489 426.6402101302424) rotate(0 50 12.5)"><text x="0" y="18" font-family="Virgil, Segoe UI Emoji" font-size="20px" fill="#000000" text-anchor="start" style="white-space: pre;" direction="ltr">Elementer:</text></g><g stroke-linecap="round" transform="translate(23.585792290321592 647.0059688502698) rotate(0 7.8977775685058305 11.18845768795768)"><path d="M3.95 0 M3.95 0 C6.72 0, 9.49 0, 11.85 0 M3.95 0 C5.86 0, 7.78 0, 11.85 0 M11.85 0 C14.48 0, 15.8 1.32, 15.8 3.95 M11.85 0 C14.48 0, 15.8 1.32, 15.8 3.95 M15.8 3.95 C15.8 8.65, 15.8 13.36, 15.8 18.43 M15.8 3.95 C15.8 8.87, 15.8 13.8, 15.8 18.43 M15.8 18.43 C15.8 21.06, 14.48 22.38, 11.85 22.38 M15.8 18.43 C15.8 21.06, 14.48 22.38, 11.85 22.38 M11.85 22.38 C10.08 22.38, 8.32 22.38, 3.95 22.38 M11.85 22.38 C9.14 22.38, 6.43 22.38, 3.95 22.38 M3.95 22.38 C1.32 22.38, 0 21.06, 0 18.43 M3.95 22.38 C1.32 22.38, 0 21.06, 0 18.43 M0 18.43 C0 14.59, 0 10.75, 0 3.95 M0 18.43 C0 14.37, 0 10.32, 0 3.95 M0 3.95 C0 1.32, 1.32 0, 3.95 0 M0 3.95 C0 1.32, 1.32 0, 3.95 0" stroke="#000000" stroke-width="1" fill="none"></path></g><g stroke-linecap="round"><g transform="translate(23.87201676054913 650.5144778919365) rotate(0 7.744131378709696 0.048396749927405835)"><path d="M0 0 C2.58 0.02, 12.91 0.08, 15.49 0.1 M0 0 C2.58 0.02, 12.91 0.08, 15.49 0.1" stroke="#000000" stroke-width="1" fill="none"></path></g></g><g stroke-linecap="round"><g transform="translate(23.678419421310508 653.9993282237563) rotate(0 7.889329383138659 0.04840708945636152)"><path d="M0 0 C2.63 0.02, 13.15 0.08, 15.78 0.1 M0 0 C2.63 0.02, 13.15 0.08, 15.78 0.1" stroke="#000000" stroke-width="1" fill="none"></path></g></g><g stroke-linecap="round"><g transform="translate(23.509016579712252 658.5006085295767) rotate(0 7.889329383138659 0.04840708945636152)"><path d="M0 0 C2.63 0.02, 13.15 0.08, 15.78 0.1 M0 0 C2.63 0.02, 13.15 0.08, 15.78 0.1" stroke="#000000" stroke-width="1" fill="none"></path></g></g><g stroke-linecap="round"><g transform="translate(23.460606905373695 656.2983509097417) rotate(0 7.889329383138659 0.04840708945636152)"><path d="M0 0 C2.63 0.02, 13.15 0.08, 15.78 0.1 M0 0 C2.63 0.02, 13.15 0.08, 15.78 0.1" stroke="#000000" stroke-width="1" fill="none"></path></g></g><g stroke-linecap="round"><g transform="translate(23.72679807706234 661.0900298093021) rotate(0 7.889329383138659 0.04840708945636152)"><path d="M0 0 C2.63 0.02, 13.15 0.08, 15.78 0.1 M0 0 C2.63 0.02, 13.15 0.08, 15.78 0.1" stroke="#000000" stroke-width="1" fill="none"></path></g></g><g stroke-linecap="round"><g transform="translate(23.629999407443066 663.4374854335662) rotate(0 7.889329383138659 0.04840708945636152)"><path d="M0 0 C2.63 0.02, 13.15 0.08, 15.78 0.1 M0 0 C2.63 0.02, 13.15 0.08, 15.78 0.1" stroke="#000000" stroke-width="1" fill="none"></path></g></g><g stroke-linecap="round"><g transform="translate(23.77519741187203 665.446114695576) rotate(0 7.889329383138659 0.04840708945636152)"><path d="M0 0 C2.63 0.02, 13.15 0.08, 15.78 0.1 M0 0 C2.63 0.02, 13.15 0.08, 15.78 0.1" stroke="#000000" stroke-width="1" fill="none"></path></g></g><g stroke-linecap="round"><g transform="translate(23.509006240183368 667.1643531184922) rotate(0 7.889329383138659 0.04840708945636152)"><path d="M0 0 C2.63 0.02, 13.15 0.08, 15.78 0.1 M0 0 C2.63 0.02, 13.15 0.08, 15.78 0.1" stroke="#000000" stroke-width="1" fill="none"></path></g></g><g stroke-linecap="round" transform="translate(931.9117586464035 695.9527040048044) rotate(0 6.166114611973342 8.735281772213)"><path d="M3.08 0 M3.08 0 C5.54 0, 8 0, 9.25 0 M3.08 0 C5.51 0, 7.93 0, 9.25 0 M9.25 0 C11.3 0, 12.33 1.03, 12.33 3.08 M9.25 0 C11.3 0, 12.33 1.03, 12.33 3.08 M12.33 3.08 C12.33 7.1, 12.33 11.12, 12.33 14.39 M12.33 3.08 C12.33 6.76, 12.33 10.44, 12.33 14.39 M12.33 14.39 C12.33 16.44, 11.3 17.47, 9.25 17.47 M12.33 14.39 C12.33 16.44, 11.3 17.47, 9.25 17.47 M9.25 17.47 C7.37 17.47, 5.49 17.47, 3.08 17.47 M9.25 17.47 C7.19 17.47, 5.13 17.47, 3.08 17.47 M3.08 17.47 C1.03 17.47, 0 16.44, 0 14.39 M3.08 17.47 C1.03 17.47, 0 16.44, 0 14.39 M0 14.39 C0 11.99, 0 9.6, 0 3.08 M0 14.39 C0 10.82, 0 7.26, 0 3.08 M0 3.08 C0 1.03, 1.03 0, 3.08 0 M0 3.08 C0 1.03, 1.03 0, 3.08 0" stroke="#000000" stroke-width="1" fill="none"></path></g><g stroke-linecap="round"><g transform="translate(932.1352256753071 698.6919390212895) rotate(0 6.046156812737024 0.03778530153715565)"><path d="M0 0 C2.02 0.01, 10.08 0.06, 12.09 0.08 M0 0 C2.02 0.01, 10.08 0.06, 12.09 0.08" stroke="#000000" stroke-width="1" fill="none"></path></g></g><g stroke-linecap="round"><g transform="translate(931.9840763966697 701.4127027254057) rotate(0 6.159518771715113 0.03779337402590954)"><path d="M0 0 C2.05 0.01, 10.27 0.06, 12.32 0.08 M0 0 C2.05 0.01, 10.27 0.06, 12.32 0.08" stroke="#000000" stroke-width="1" fill="none"></path></g></g><g stroke-linecap="round"><g transform="translate(931.8518167416175 704.9270344504455) rotate(0 6.159518771715113 0.03779337402590954)"><path d="M0 0 C2.05 0.01, 10.27 0.06, 12.32 0.08 M0 0 C2.05 0.01, 10.27 0.06, 12.32 0.08" stroke="#000000" stroke-width="1" fill="none"></path></g></g><g stroke-linecap="round"><g transform="translate(931.8140213494694 703.207642789791) rotate(0 6.159518771715113 0.03779337402590954)"><path d="M0 0 C2.05 0.01, 10.27 0.06, 12.32 0.08 M0 0 C2.05 0.01, 10.27 0.06, 12.32 0.08" stroke="#000000" stroke-width="1" fill="none"></path></g></g><g stroke-linecap="round"><g transform="translate(932.0218475713514 706.9487004509087) rotate(0 6.159518771715113 0.03779337402590954)"><path d="M0 0 C2.05 0.01, 10.27 0.06, 12.32 0.08 M0 0 C2.05 0.01, 10.27 0.06, 12.32 0.08" stroke="#000000" stroke-width="1" fill="none"></path></g></g><g stroke-linecap="round"><g transform="translate(931.9462729320328 708.7814540705416) rotate(0 6.159518771715113 0.03779337402590954)"><path d="M0 0 C2.05 0.01, 10.27 0.06, 12.32 0.08 M0 0 C2.05 0.01, 10.27 0.06, 12.32 0.08" stroke="#000000" stroke-width="1" fill="none"></path></g></g><g stroke-linecap="round"><g transform="translate(932.0596348910108 710.3496722350928) rotate(0 6.159518771715113 0.03779337402590954)"><path d="M0 0 C2.05 0.01, 10.27 0.06, 12.32 0.08 M0 0 C2.05 0.01, 10.27 0.06, 12.32 0.08" stroke="#000000" stroke-width="1" fill="none"></path></g></g><g stroke-linecap="round"><g transform="translate(931.8518086691288 711.691170517932) rotate(0 6.159518771715113 0.03779337402590954)"><path d="M0 0 C2.05 0.01, 10.27 0.06, 12.32 0.08 M0 0 C2.05 0.01, 10.27 0.06, 12.32 0.08" stroke="#000000" stroke-width="1" fill="none"></path></g></g><g stroke-linecap="round"><g transform="translate(948.7988454458451 704.2014418585877) rotate(0 89.39153098742264 -54.546455064684494)"><path d="M0 0 C9.21 -2.3, 31.41 1.62, 55.28 -13.82 C79.15 -29.26, 122.62 -76.75, 143.2 -92.63 C163.79 -108.5, 172.85 -106.35, 178.78 -109.09 M0 0 C9.21 -2.3, 31.41 1.62, 55.28 -13.82 C79.15 -29.26, 122.62 -76.75, 143.2 -92.63 C163.79 -108.5, 172.85 -106.35, 178.78 -109.09" stroke="#000000" stroke-width="1" fill="none"></path></g><g transform="translate(948.7988454458451 704.2014418585877) rotate(0 89.39153098742264 -54.546455064684494)"><path d="M178.78 -109.09 L167.36 -99.37 L163.99 -111.59 L178.78 -109.09" stroke="none" stroke-width="0" fill="#000000" fill-rule="evenodd"></path><path d="M178.78 -109.09 C174.44 -105.39, 170.09 -101.69, 167.36 -99.37 M178.78 -109.09 C175.27 -106.1, 171.76 -103.12, 167.36 -99.37 M167.36 -99.37 C166.02 -104.23, 164.68 -109.09, 163.99 -111.59 M167.36 -99.37 C166.25 -103.41, 165.13 -107.45, 163.99 -111.59 M163.99 -111.59 C169.11 -110.73, 174.23 -109.86, 178.78 -109.09 M163.99 -111.59 C169.52 -110.66, 175.05 -109.72, 178.78 -109.09 M178.78 -109.09 C178.78 -109.09, 178.78 -109.09, 178.78 -109.09 M178.78 -109.09 C178.78 -109.09, 178.78 -109.09, 178.78 -109.09" stroke="#000000" stroke-width="1" fill="none"></path></g></g><g stroke-linecap="round" transform="translate(1126.6997186136991 508.9515883406568) rotate(0 103.06486074317547 110.12210423083195)"><path d="M0 0 C58.77 0, 117.53 0, 206.13 0 M0 0 C68.51 0, 137.02 0, 206.13 0 M206.13 0 C206.13 47.62, 206.13 95.23, 206.13 220.24 M206.13 0 C206.13 63.84, 206.13 127.67, 206.13 220.24 M206.13 220.24 C151.56 220.24, 96.99 220.24, 0 220.24 M206.13 220.24 C139.28 220.24, 72.44 220.24, 0 220.24 M0 220.24 C0 161.37, 0 102.49, 0 0 M0 220.24 C0 152.68, 0 85.12, 0 0" stroke="#000000" stroke-width="1" fill="none"></path></g><g stroke-linecap="round"><g transform="translate(1127.5818760126583 543.3555541558833) rotate(0 101.74162464473693 0)"><path d="M0 0 C33.91 0, 169.57 0, 203.48 0 M0 0 C33.91 0, 169.57 0, 203.48 0" stroke="#000000" stroke-width="1" fill="none"></path></g></g><g transform="translate(1178.7466910719622 516.1243692947991) rotate(0 26.5 12.5)"><text x="0" y="18" font-family="Virgil, Segoe UI Emoji" font-size="20px" fill="#000000" text-anchor="start" style="white-space: pre;" direction="ltr">Dato</text></g><g stroke-linecap="round"><g transform="translate(1126.4056138006592 573.0547066833549) rotate(0 103.21191314969542 -0.14702885049581482)"><path d="M0 0 C34.4 -0.05, 172.02 -0.25, 206.42 -0.29 M0 0 C34.4 -0.05, 172.02 -0.25, 206.42 -0.29" stroke="#000000" stroke-width="1" fill="none"></path></g></g><g stroke-linecap="round"><g transform="translate(1125.743972195416 595.9906184601056) rotate(0 103.21191314969542 -0.14702885049581482)"><path d="M0 0 C34.4 -0.05, 172.02 -0.25, 206.42 -0.29 M0 0 C34.4 -0.05, 172.02 -0.25, 206.42 -0.29" stroke="#000000" stroke-width="1" fill="none"></path></g></g><g stroke-linecap="round"><g transform="translate(1126.6261295943755 624.8076292926343) rotate(0 103.21191314969542 -0.14702885049581482)"><path d="M0 0 C34.4 -0.05, 172.02 -0.25, 206.42 -0.29 M0 0 C34.4 -0.05, 172.02 -0.25, 206.42 -0.29" stroke="#000000" stroke-width="1" fill="none"></path></g></g><g stroke-linecap="round"><g transform="translate(1126.3321190054312 653.4041086274312) rotate(0 103.21191314969542 -0.14702885049581482)"><path d="M0 0 C34.4 -0.05, 172.02 -0.25, 206.42 -0.29 M0 0 C34.4 -0.05, 172.02 -0.25, 206.42 -0.29" stroke="#000000" stroke-width="1" fill="none"></path></g></g><g stroke-linecap="round"><g transform="translate(1126.920171591351 677.6633585787248) rotate(0 103.21191314969542 -0.14702885049581482)"><path d="M0 0 C34.4 -0.05, 172.02 -0.25, 206.42 -0.29 M0 0 C34.4 -0.05, 172.02 -0.25, 206.42 -0.29" stroke="#000000" stroke-width="1" fill="none"></path></g></g><g stroke-linecap="round"><g transform="translate(1126.9202344074151 704.5689236867352) rotate(0 103.21191314969542 -0.14702885049581482)"><path d="M0 0 C34.4 -0.05, 172.02 -0.25, 206.42 -0.29 M0 0 C34.4 -0.05, 172.02 -0.25, 206.42 -0.29" stroke="#000000" stroke-width="1" fill="none"></path></g></g><g stroke-linecap="round"><g transform="translate(1173.7478828992798 728.9016919892807) rotate(0 0 -92.6260557702189)"><path d="M0 0 C0 -30.88, 0 -154.38, 0 -185.25 M0 0 C0 -30.88, 0 -154.38, 0 -185.25" stroke="#000000" stroke-width="1" fill="none"></path></g></g><g stroke-linecap="round"><g transform="translate(1216.6057445757488 728.3871184945734) rotate(0 0 -92.6260557702189)"><path d="M0 0 C0 -30.88, 0 -154.38, 0 -185.25 M0 0 C0 -30.88, 0 -154.38, 0 -185.25" stroke="#000000" stroke-width="1" fill="none"></path></g></g><g stroke-linecap="round"><g transform="translate(1253.9501774727803 728.0930764975976) rotate(0 0 -92.6260557702189)"><path d="M0 0 C0 -30.88, 0 -154.38, 0 -185.25 M0 0 C0 -30.88, 0 -154.38, 0 -185.25" stroke="#000000" stroke-width="1" fill="none"></path></g></g><g stroke-linecap="round"><g transform="translate(1292.470903989842 729.3428178008087) rotate(0 0 -92.6260557702189)"><path d="M0 0 C0 -30.88, 0 -154.38, 0 -185.25 M0 0 C0 -30.88, 0 -154.38, 0 -185.25" stroke="#000000" stroke-width="1" fill="none"></path></g></g><g stroke-linecap="round" transform="translate(14.221802073468837 698.9640202813998) rotate(0 103.06486074317547 110.12210423083195)"><path d="M0 0 C81.79 0, 163.59 0, 206.13 0 M0 0 C45.66 0, 91.32 0, 206.13 0 M206.13 0 C206.13 81.23, 206.13 162.46, 206.13 220.24 M206.13 0 C206.13 46.6, 206.13 93.2, 206.13 220.24 M206.13 220.24 C147.17 220.24, 88.2 220.24, 0 220.24 M206.13 220.24 C135.67 220.24, 65.21 220.24, 0 220.24 M0 220.24 C0 160.36, 0 100.48, 0 0 M0 220.24 C0 141.15, 0 62.06, 0 0" stroke="#000000" stroke-width="1" fill="none"></path></g><g stroke-linecap="round"><g transform="translate(15.103959472428016 733.3679860966263) rotate(0 101.74162464473693 0)"><path d="M0 0 C33.91 0, 169.57 0, 203.48 0 M0 0 C33.91 0, 169.57 0, 203.48 0" stroke="#000000" stroke-width="1" fill="none"></path></g></g><g transform="translate(66.26877453173194 706.136801235542) rotate(0 26.5 12.5)"><text x="0" y="18" font-family="Virgil, Segoe UI Emoji" font-size="20px" fill="#000000" text-anchor="start" style="white-space: pre;" direction="ltr">Dato</text></g><g stroke-linecap="round"><g transform="translate(13.927697260428943 763.0671386240979) rotate(0 103.21191314969542 -0.14702885049581482)"><path d="M0 0 C34.4 -0.05, 172.02 -0.25, 206.42 -0.29 M0 0 C34.4 -0.05, 172.02 -0.25, 206.42 -0.29" stroke="#000000" stroke-width="1" fill="none"></path></g></g><g stroke-linecap="round"><g transform="translate(13.266055655185767 786.0030504008485) rotate(0 103.21191314969542 -0.14702885049581482)"><path d="M0 0 C34.4 -0.05, 172.02 -0.25, 206.42 -0.29 M0 0 C34.4 -0.05, 172.02 -0.25, 206.42 -0.29" stroke="#000000" stroke-width="1" fill="none"></path></g></g><g stroke-linecap="round"><g transform="translate(14.148213054145174 814.8200612333771) rotate(0 103.21191314969542 -0.14702885049581482)"><path d="M0 0 C34.4 -0.05, 172.02 -0.25, 206.42 -0.29 M0 0 C34.4 -0.05, 172.02 -0.25, 206.42 -0.29" stroke="#000000" stroke-width="1" fill="none"></path></g></g><g stroke-linecap="round"><g transform="translate(13.854202465200899 843.4165405681742) rotate(0 103.21191314969542 -0.14702885049581482)"><path d="M0 0 C34.4 -0.05, 172.02 -0.25, 206.42 -0.29 M0 0 C34.4 -0.05, 172.02 -0.25, 206.42 -0.29" stroke="#000000" stroke-width="1" fill="none"></path></g></g><g stroke-linecap="round"><g transform="translate(14.44225505112064 867.6757905194677) rotate(0 103.21191314969542 -0.14702885049581482)"><path d="M0 0 C34.4 -0.05, 172.02 -0.25, 206.42 -0.29 M0 0 C34.4 -0.05, 172.02 -0.25, 206.42 -0.29" stroke="#000000" stroke-width="1" fill="none"></path></g></g><g stroke-linecap="round"><g transform="translate(14.44231786718484 894.581355627478) rotate(0 103.21191314969542 -0.14702885049581482)"><path d="M0 0 C34.4 -0.05, 172.02 -0.25, 206.42 -0.29 M0 0 C34.4 -0.05, 172.02 -0.25, 206.42 -0.29" stroke="#000000" stroke-width="1" fill="none"></path></g></g><g stroke-linecap="round"><g transform="translate(61.26996635904953 918.9141239300234) rotate(0 0 -92.6260557702189)"><path d="M0 0 C0 -30.88, 0 -154.38, 0 -185.25 M0 0 C0 -30.88, 0 -154.38, 0 -185.25" stroke="#000000" stroke-width="1" fill="none"></path></g></g><g stroke-linecap="round"><g transform="translate(104.12782803551846 918.3995504353156) rotate(0 0 -92.6260557702189)"><path d="M0 0 C0 -30.88, 0 -154.38, 0 -185.25 M0 0 C0 -30.88, 0 -154.38, 0 -185.25" stroke="#000000" stroke-width="1" fill="none"></path></g></g><g stroke-linecap="round"><g transform="translate(141.47226093255 918.1055084383402) rotate(0 0 -92.6260557702189)"><path d="M0 0 C0 -30.88, 0 -154.38, 0 -185.25 M0 0 C0 -30.88, 0 -154.38, 0 -185.25" stroke="#000000" stroke-width="1" fill="none"></path></g></g><g stroke-linecap="round"><g transform="translate(179.9929874496118 919.3552497415512) rotate(0 0 -92.6260557702189)"><path d="M0 0 C0 -30.88, 0 -154.38, 0 -185.25 M0 0 C0 -30.88, 0 -154.38, 0 -185.25" stroke="#000000" stroke-width="1" fill="none"></path></g></g></svg>