<svg version="1.1" xmlns="http://www.w3.org/2000/svg" viewBox="0 0 3834.6416320800777 1405.5707022309298" width="3834.6416320800777" height="1405.5707022309298">
  <!-- svg-source:excalidraw -->
  
  <defs>
    <style class="style-fonts">
      @font-face {
        font-family: "Virgil";
        src: url("https://excalidraw.com/Virgil.woff2");
      }
      @font-face {
        font-family: "Cascadia";
        src: url("https://excalidraw.com/Cascadia.woff2");
      }
    </style>
  </defs>
  <rect x="0" y="0" width="3834.6416320800777" height="1405.5707022309298" fill="#ffffff"></rect><g stroke-linecap="round" transform="translate(596.2855224609375 248.7858276367187) rotate(0 142.857177734375 58.2857666015625)"><path d="M-0.77 -2 C74.04 1.26, 147.93 3.84, 286.77 -0.67 M-0.86 -0.9 C67.66 1.48, 132.54 1.1, 284.51 -1.34 M282.7 1.93 C286.15 47.13, 286.8 84.99, 289.25 118.93 M286 -1.4 C287.42 30.3, 289.55 60.8, 285.21 114.99 M285.56 115.48 C194.98 115.46, 99.54 115.86, 0.07 115.89 M284.27 117.59 C194.81 120.71, 104.39 120.2, 0.51 117.04 M1.26 117.07 C-1.6 80.84, -1.62 49.4, 2.12 3.3 M-1.71 117.11 C0.99 87.29, 0.26 58.21, 0.65 1.66" stroke="#000000" stroke-width="1" fill="none"></path></g><g transform="translate(695.1427001953125 284.0715942382812) rotate(0 44 23)"><text x="44" y="32" font-family="Virgil, Segoe UI Emoji" font-size="36px" fill="#000000" text-anchor="middle" style="white-space: pre;" direction="ltr">Page</text></g><g stroke-linecap="round" transform="translate(1219.7147216796875 271.07153320312494) rotate(0 142.857177734375 58.2857666015625)"><path d="M-1.35 0.27 C58.93 -0.98, 125.16 -3.7, 286.59 -1.17 M-0.92 1.49 C109.71 -1.05, 217.41 0.41, 285.73 -0.41 M281.99 -0.73 C282.03 34.3, 282.8 69.78, 288.58 120.49 M284.42 1.83 C284.22 42.36, 282.78 84.57, 285.57 118.11 M286.29 119.43 C217.99 117.07, 154.07 117.79, -0.63 118.75 M284.83 117.34 C196.18 116.27, 105.35 114.29, 1.35 116.03 M-2.42 112.62 C4.32 76.76, -0.68 32.34, 3.19 0.19 M-1.4 115.62 C-2.02 81.08, 0.38 45.72, 1 0.54" stroke="#000000" stroke-width="1" fill="none"></path></g><g transform="translate(1270.0718994140625 306.35729980468744) rotate(0 92.5 23)"><text x="92.5" y="32" font-family="Virgil, Segoe UI Emoji" font-size="36px" fill="#000000" text-anchor="middle" style="white-space: pre;" direction="ltr">PageModel</text></g><g stroke-linecap="round" transform="translate(2917.9995117187486 283.35720825195307) rotate(0 142.857177734375 58.2857666015625)"><path d="M2.43 1.36 C89.05 3.49, 183.25 4.42, 286.03 1 M-0.95 0.52 C100.7 3.19, 200.43 2.46, 286.11 -1.22 M288.62 2.87 C282.49 42.01, 283.69 79.82, 284.77 117.66 M286.18 -0.73 C288.86 43.74, 285.38 90.21, 286.72 116.87 M285.14 115.77 C220.81 121.96, 150.09 121.63, -0.29 118.04 M284.44 117.8 C220.86 117.67, 156.04 116.97, -0.86 116.08 M-3.89 120.08 C0.42 72.21, 2.31 27.87, -2.37 3.51 M-0.36 117.31 C0.18 81.62, 0.21 42.74, -1.09 -0.87" stroke="#000000" stroke-width="1" fill="none"></path></g><g transform="translate(2949.3566894531236 318.64297485351545) rotate(0 111.5 23)"><text x="111.5" y="32" font-family="Virgil, Segoe UI Emoji" font-size="36px" fill="#000000" text-anchor="middle" style="white-space: pre;" direction="ltr">EventService</text></g><g stroke-linecap="round" transform="translate(3528.286010742187 292.785659790039) rotate(0 142.857177734375 58.2857666015625)"><path d="M0.31 1 C79.88 -2.33, 155.33 -2.11, 286.76 1.73 M0.39 -1.22 C107.84 -1.68, 215.72 -0.08, 286.8 -0.93 M284.77 1.09 C288.59 44.99, 287.37 85.67, 284.26 119.81 M286.72 0.3 C282.27 23.34, 284.71 49.65, 285.19 118.3 M285.42 118.04 C170.88 118.17, 60.2 117.62, 2.46 116.43 M284.85 116.08 C173.24 118.7, 59.05 117.33, 1.33 116.67 M-2.37 120.09 C-0.57 79.72, -1.6 44.25, 1.48 -0.85 M-1.09 115.7 C-0.05 71.06, 2.35 23.24, 1.21 -0.47" stroke="#000000" stroke-width="1" fill="none"></path></g><g transform="translate(3569.643188476562 328.0714263916015) rotate(0 101.5 23)"><text x="101.5" y="32" font-family="Virgil, Segoe UI Emoji" font-size="36px" fill="#000000" text-anchor="middle" style="white-space: pre;" direction="ltr">JsonService</text></g><g transform="translate(83.14263916015625 318.5002136230467) rotate(0 72.57144165039062 -83.4285278320312)" stroke="none"><path fill="#000000" d="M -0.63,-1.42 Q -0.63,-1.42 2.33,-2.70 5.30,-3.99 9.73,-7.08 14.16,-10.18 19.02,-14.12 23.88,-18.06 28.24,-22.01 32.59,-25.97 36.07,-29.60 39.54,-33.23 42.65,-37.04 45.75,-40.86 49.04,-45.11 52.34,-49.36 55.73,-53.49 59.12,-57.62 62.18,-61.64 65.25,-65.67 67.86,-69.34 70.47,-73.02 72.54,-76.51 74.61,-80.01 76.14,-83.11 77.66,-86.21 79.31,-89.52 80.96,-92.83 82.30,-95.86 83.65,-98.88 84.54,-101.14 85.44,-103.40 86.49,-105.14 87.54,-106.87 87.57,-107.65 87.60,-108.42 87.73,-108.57 87.85,-108.72 88.01,-108.84 88.17,-108.95 88.35,-109.03 88.53,-109.10 88.72,-109.13 88.91,-109.16 89.11,-109.15 89.30,-109.13 89.49,-109.07 89.67,-109.00 89.84,-108.90 90.00,-108.79 90.14,-108.65 90.27,-108.51 90.37,-108.34 90.46,-108.17 90.52,-107.98 90.57,-107.80 90.58,-107.60 90.58,-107.40 90.54,-107.21 90.50,-107.02 90.42,-106.85 90.33,-106.67 88.80,-106.27 87.27,-105.87 85.32,-103.83 83.38,-101.80 81.47,-99.25 79.56,-96.70 78.13,-93.44 76.71,-90.18 75.42,-86.48 74.13,-82.79 73.26,-78.66 72.39,-74.53 72.02,-70.19 71.64,-65.85 71.14,-61.97 70.64,-58.09 70.10,-55.10 69.55,-52.12 69.32,-49.61 69.10,-47.10 69.07,-45.37 69.05,-43.64 69.11,-42.26 69.17,-40.87 69.21,-39.31 69.25,-37.75 69.52,-35.90 69.80,-34.06 70.25,-32.31 70.70,-30.55 71.22,-28.83 71.75,-27.10 72.25,-25.00 72.75,-22.90 73.31,-21.06 73.87,-19.22 74.21,-17.68 74.55,-16.14 74.99,-14.64 75.44,-13.13 75.71,-11.70 75.98,-10.27 76.62,-8.98 77.25,-7.70 77.34,-7.44 77.42,-7.18 77.44,-6.90 77.45,-6.63 77.40,-6.35 77.36,-6.08 77.24,-5.83 77.13,-5.58 76.96,-5.36 76.79,-5.14 76.57,-4.97 76.36,-4.80 76.11,-4.69 75.85,-4.57 75.58,-4.52 75.31,-4.47 75.04,-4.49 74.76,-4.51 74.50,-4.59 74.23,-4.67 74.00,-4.81 73.76,-4.95 73.57,-5.15 73.37,-5.34 73.23,-5.58 73.08,-5.81 73.08,-7.04 73.07,-8.26 73.09,-9.81 73.12,-11.37 73.25,-13.68 73.38,-16.00 73.48,-19.28 73.58,-22.57 73.65,-25.61 73.72,-28.64 73.78,-31.91 73.83,-35.17 73.87,-38.53 73.91,-41.89 73.93,-44.96 73.96,-48.03 73.98,-51.30 74.00,-54.58 74.35,-57.37 74.70,-60.16 75.18,-63.30 75.66,-66.44 76.20,-69.11 76.74,-71.79 77.64,-74.93 78.54,-78.08 79.25,-80.69 79.95,-83.31 80.58,-85.74 81.21,-88.16 81.80,-90.81 82.39,-93.47 82.98,-95.93 83.56,-98.39 84.50,-100.83 85.43,-103.27 86.13,-105.24 86.84,-107.22 87.01,-108.65 87.19,-110.08 87.60,-111.78 88.02,-113.48 88.51,-114.69 89.00,-115.91 89.48,-117.03 89.96,-118.15 90.46,-119.29 90.97,-120.44 91.49,-121.59 92.01,-122.73 92.15,-124.65 92.30,-126.57 92.78,-127.85 93.26,-129.12 93.77,-130.11 94.27,-131.09 95.20,-132.85 96.13,-134.61 96.89,-135.39 97.64,-136.17 98.47,-137.11 99.30,-138.04 100.49,-139.91 101.67,-141.78 101.75,-143.37 101.83,-144.97 102.32,-146.67 102.81,-148.37 103.85,-150.02 104.89,-151.66 106.10,-154.02 107.31,-156.38 108.06,-158.66 108.81,-160.95 109.34,-162.02 109.87,-163.09 110.51,-164.06 111.14,-165.02 111.58,-165.98 112.02,-166.94 112.18,-167.26 112.34,-167.57 112.57,-167.84 112.79,-168.11 113.08,-168.32 113.37,-168.53 113.70,-168.66 114.03,-168.79 114.38,-168.84 114.73,-168.89 115.08,-168.86 115.44,-168.82 115.77,-168.70 116.10,-168.58 116.40,-168.39 116.70,-168.19 116.94,-167.93 117.18,-167.67 117.35,-167.36 117.52,-167.05 117.61,-166.71 117.70,-166.36 117.71,-166.01 117.72,-165.66 117.64,-165.31 117.56,-164.96 116.68,-164.09 115.79,-163.21 114.00,-161.62 112.21,-160.03 110.74,-157.85 109.27,-155.67 107.57,-152.75 105.86,-149.83 104.44,-147.28 103.02,-144.73 102.08,-142.72 101.14,-140.71 100.43,-138.87 99.71,-137.04 98.71,-135.42 97.71,-133.80 97.45,-132.42 97.19,-131.04 96.30,-129.44 95.40,-127.83 94.80,-126.63 94.20,-125.43 94.04,-124.19 93.88,-122.96 93.00,-121.10 92.12,-119.24 91.47,-117.63 90.82,-116.03 90.21,-114.36 89.60,-112.70 88.59,-110.88 87.58,-109.06 86.91,-107.67 86.23,-106.28 85.55,-104.48 84.87,-102.69 84.37,-101.42 83.86,-100.15 82.95,-98.69 82.03,-97.23 79.60,-95.86 77.18,-94.48 76.13,-95.80 75.07,-97.12 75.05,-98.85 75.03,-100.59 75.14,-102.56 75.25,-104.53 75.40,-107.01 75.54,-109.48 75.99,-111.98 76.44,-114.48 76.62,-116.40 76.81,-118.32 76.93,-120.44 77.06,-122.56 77.09,-124.45 77.11,-126.35 77.10,-128.13 77.09,-129.92 77.07,-131.67 77.05,-133.41 76.98,-134.81 76.92,-136.20 76.10,-138.21 75.28,-140.23 73.73,-141.20 72.19,-142.16 71.16,-142.71 70.12,-143.25 69.02,-143.81 67.92,-144.36 66.80,-144.91 65.67,-145.47 64.53,-146.03 63.39,-146.58 62.25,-147.14 61.10,-147.70 59.72,-147.85 58.34,-148.00 57.21,-148.02 56.08,-148.05 55.75,-148.10 55.42,-148.15 55.11,-148.28 54.80,-148.42 54.53,-148.62 54.26,-148.82 54.05,-149.08 53.84,-149.34 53.69,-149.64 53.55,-149.94 53.48,-150.27 53.42,-150.60 53.43,-150.94 53.44,-151.27 53.54,-151.59 53.63,-151.92 53.80,-152.21 53.97,-152.50 54.20,-152.74 54.43,-152.98 54.72,-153.16 55.00,-153.34 55.32,-153.44 55.63,-153.55 55.97,-153.58 56.30,-153.60 57.64,-153.22 58.97,-152.83 60.59,-151.85 62.22,-150.87 63.71,-148.79 65.20,-146.72 66.34,-144.52 67.48,-142.32 68.53,-140.45 69.59,-138.58 70.46,-137.12 71.32,-135.65 72.05,-133.96 72.79,-132.26 73.85,-130.05 74.91,-127.84 75.82,-126.30 76.72,-124.76 77.30,-123.03 77.89,-121.30 78.28,-119.64 78.67,-117.98 79.09,-116.50 79.50,-115.01 79.75,-113.52 80.00,-112.03 80.11,-110.72 80.23,-109.40 80.28,-108.21 80.32,-107.01 80.72,-105.94 81.12,-104.87 80.06,-105.27 79.00,-105.66 80.39,-107.38 81.79,-109.11 83.35,-111.47 84.91,-113.83 86.66,-116.53 88.42,-119.23 90.16,-122.29 91.90,-125.35 93.33,-127.96 94.76,-130.57 96.44,-132.76 98.12,-134.96 99.52,-136.32 100.92,-137.68 102.10,-138.88 103.28,-140.09 104.95,-141.07 106.61,-142.06 107.46,-142.76 108.30,-143.47 110.43,-144.20 112.56,-144.92 114.38,-145.61 116.20,-146.30 117.33,-146.44 118.46,-146.57 119.90,-146.59 121.34,-146.61 122.93,-146.58 124.52,-146.56 126.43,-146.15 128.33,-145.75 129.63,-145.23 130.94,-144.71 132.59,-144.07 134.24,-143.42 135.18,-142.31 136.12,-141.19 137.37,-140.01 138.63,-138.83 139.07,-137.85 139.51,-136.87 140.20,-135.61 140.89,-134.34 141.93,-132.33 142.96,-130.32 143.41,-128.33 143.86,-126.35 144.27,-125.18 144.68,-124.01 145.18,-122.87 145.67,-121.73 146.00,-120.70 146.32,-119.67 146.60,-119.22 146.88,-118.77 147.19,-118.43 147.50,-118.10 147.68,-117.68 147.86,-117.26 147.90,-116.81 147.94,-116.36 147.84,-115.92 147.73,-115.47 147.49,-115.09 147.25,-114.70 146.89,-114.41 146.54,-114.13 146.11,-113.97 145.69,-113.81 145.23,-113.79 144.78,-113.78 144.34,-113.91 143.91,-114.04 143.53,-114.30 143.16,-114.56 142.89,-114.93 142.63,-115.30 142.49,-115.73 142.35,-116.17 142.36,-116.62 142.37,-117.08 142.53,-117.51 142.68,-117.93 142.96,-118.29 143.24,-118.65 143.63,-118.90 144.01,-119.14 144.45,-119.26 144.89,-119.37 145.34,-119.33 145.80,-119.30 146.22,-119.12 146.64,-118.95 146.98,-118.65 147.32,-118.34 147.55,-117.95 147.77,-117.55 147.86,-117.11 147.95,-116.66 147.89,-116.21 147.83,-115.76 147.63,-115.35 147.43,-114.94 147.11,-114.62 146.79,-114.29 146.39,-114.09 145.98,-113.88 145.53,-113.82 145.08,-113.75 144.63,-113.84 144.19,-113.92 143.79,-114.14 143.39,-114.36 143.39,-114.36 143.39,-114.36 142.07,-116.97 140.74,-119.58 140.17,-120.88 139.61,-122.18 139.06,-123.66 138.51,-125.14 138.26,-126.29 138.01,-127.44 137.03,-128.91 136.06,-130.38 135.62,-131.66 135.19,-132.94 134.40,-134.69 133.60,-136.44 132.17,-137.96 130.74,-139.47 129.04,-140.19 127.35,-140.91 125.94,-141.15 124.54,-141.40 122.99,-141.35 121.44,-141.30 119.12,-141.28 116.79,-141.27 114.96,-140.84 113.13,-140.42 111.84,-140.32 110.55,-140.22 109.45,-139.56 108.36,-138.91 107.02,-138.23 105.67,-137.56 104.42,-136.41 103.16,-135.26 101.91,-134.16 100.66,-133.07 99.20,-131.04 97.74,-129.01 96.42,-126.32 95.10,-123.63 93.48,-120.40 91.85,-117.18 90.31,-114.36 88.77,-111.54 87.23,-108.65 85.68,-105.76 84.18,-103.84 82.67,-101.93 81.25,-101.41 79.84,-100.90 77.82,-102.53 75.80,-104.17 75.39,-105.45 74.99,-106.72 74.96,-107.87 74.94,-109.02 74.88,-110.13 74.82,-111.23 74.66,-112.34 74.51,-113.45 73.98,-114.98 73.45,-116.52 73.05,-118.03 72.66,-119.53 72.63,-120.85 72.60,-122.17 72.04,-123.20 71.47,-124.22 70.95,-126.32 70.43,-128.42 69.81,-129.58 69.20,-130.74 68.58,-132.24 67.95,-133.74 67.17,-135.15 66.40,-136.57 65.13,-138.38 63.86,-140.20 62.63,-142.03 61.40,-143.87 60.40,-145.10 59.41,-146.32 57.74,-147.18 56.08,-148.05 55.75,-148.10 55.42,-148.15 55.11,-148.28 54.80,-148.42 54.53,-148.62 54.26,-148.82 54.05,-149.08 53.84,-149.34 53.70,-149.64 53.55,-149.94 53.48,-150.27 53.42,-150.60 53.43,-150.94 53.44,-151.27 53.54,-151.59 53.63,-151.92 53.80,-152.21 53.97,-152.50 54.20,-152.74 54.43,-152.98 54.71,-153.16 55.00,-153.34 55.32,-153.44 55.63,-153.55 55.97,-153.58 56.30,-153.60 56.43,-153.57 56.57,-153.54 57.73,-153.47 58.90,-153.40 60.14,-153.22 61.38,-153.04 62.39,-152.68 63.40,-152.31 64.54,-151.72 65.68,-151.13 66.82,-150.54 67.96,-149.95 69.10,-149.34 70.24,-148.74 71.38,-148.11 72.52,-147.48 73.67,-146.79 74.82,-146.09 75.98,-145.25 77.13,-144.40 78.19,-143.18 79.24,-141.96 79.72,-140.60 80.19,-139.24 80.49,-137.73 80.78,-136.22 80.71,-134.81 80.64,-133.41 80.61,-131.65 80.58,-129.90 80.55,-128.10 80.52,-126.30 80.49,-124.39 80.47,-122.47 80.48,-120.27 80.49,-118.07 80.39,-116.01 80.30,-113.95 80.10,-111.72 79.90,-109.49 80.05,-107.03 80.21,-104.57 80.35,-102.64 80.50,-100.72 80.05,-99.60 79.61,-98.48 78.33,-98.40 77.04,-98.31 78.06,-99.88 79.07,-101.44 79.54,-102.76 80.02,-104.07 80.94,-105.05 81.86,-106.04 82.30,-107.06 82.74,-108.08 83.50,-109.46 84.26,-110.84 85.08,-112.43 85.90,-114.03 86.51,-115.76 87.12,-117.49 87.79,-119.24 88.46,-120.99 89.14,-122.38 89.82,-123.77 90.24,-125.55 90.66,-127.33 91.42,-128.58 92.18,-129.83 92.95,-130.90 93.72,-131.98 94.28,-133.80 94.83,-135.63 95.75,-136.92 96.67,-138.21 97.38,-140.12 98.09,-142.03 98.96,-144.21 99.83,-146.38 101.11,-149.04 102.39,-151.70 103.94,-154.84 105.50,-157.97 107.08,-160.78 108.65,-163.59 110.33,-165.27 112.02,-166.94 112.18,-167.26 112.34,-167.57 112.56,-167.84 112.79,-168.11 113.08,-168.32 113.37,-168.53 113.70,-168.66 114.03,-168.79 114.38,-168.84 114.73,-168.89 115.08,-168.86 115.44,-168.82 115.77,-168.70 116.10,-168.58 116.40,-168.39 116.70,-168.19 116.94,-167.93 117.18,-167.67 117.35,-167.36 117.52,-167.05 117.61,-166.71 117.70,-166.36 117.71,-166.01 117.72,-165.66 117.64,-165.31 117.56,-164.96 117.10,-164.35 116.64,-163.74 115.74,-162.17 114.84,-160.61 113.92,-158.89 113.00,-157.18 111.91,-154.42 110.81,-151.67 110.33,-150.12 109.84,-148.58 109.25,-147.68 108.67,-146.78 108.42,-145.60 108.18,-144.42 108.07,-143.15 107.97,-141.87 107.55,-140.38 107.13,-138.88 106.20,-138.03 105.27,-137.18 104.79,-136.22 104.32,-135.26 103.12,-133.64 101.92,-132.02 100.69,-131.38 99.45,-130.73 99.38,-129.63 99.31,-128.52 98.21,-127.28 97.10,-126.05 96.94,-124.79 96.78,-123.54 96.40,-122.15 96.02,-120.76 95.40,-119.64 94.79,-118.52 94.17,-117.43 93.55,-116.33 92.37,-114.45 91.19,-112.57 90.69,-111.02 90.19,-109.47 89.76,-107.90 89.33,-106.33 88.61,-104.33 87.89,-102.32 87.01,-100.05 86.14,-97.78 85.56,-95.34 84.98,-92.89 84.38,-90.20 83.78,-87.50 83.16,-85.06 82.53,-82.62 81.83,-79.98 81.13,-77.34 80.26,-74.30 79.40,-71.25 78.89,-68.64 78.37,-66.03 77.92,-62.93 77.46,-59.83 77.15,-57.20 76.84,-54.58 76.86,-51.30 76.89,-48.03 76.91,-44.96 76.94,-41.89 76.98,-38.53 77.02,-35.17 77.07,-31.91 77.12,-28.64 77.19,-25.60 77.26,-22.56 77.35,-19.27 77.45,-15.99 77.57,-13.66 77.69,-11.33 77.47,-9.52 77.25,-7.70 77.34,-7.44 77.42,-7.18 77.44,-6.90 77.45,-6.63 77.40,-6.35 77.36,-6.08 77.24,-5.83 77.13,-5.58 76.96,-5.36 76.79,-5.14 76.57,-4.97 76.36,-4.80 76.11,-4.69 75.85,-4.57 75.58,-4.52 75.31,-4.47 75.04,-4.49 74.76,-4.51 74.50,-4.59 74.23,-4.67 74.00,-4.81 73.76,-4.95 73.57,-5.15 73.37,-5.34 73.23,-5.58 73.08,-5.81 72.97,-6.56 72.86,-7.30 72.45,-8.49 72.04,-9.68 71.95,-10.92 71.85,-12.17 71.44,-13.86 71.02,-15.56 70.88,-16.92 70.74,-18.28 70.17,-20.17 69.60,-22.05 69.00,-24.08 68.40,-26.10 67.87,-27.90 67.35,-29.70 66.87,-31.61 66.39,-33.51 66.02,-35.64 65.65,-37.78 65.72,-39.37 65.80,-40.97 65.94,-42.39 66.08,-43.81 66.25,-45.57 66.42,-47.34 66.65,-49.97 66.88,-52.60 67.40,-55.52 67.93,-58.43 68.40,-62.26 68.87,-66.08 69.24,-70.59 69.61,-75.10 70.49,-79.42 71.37,-83.73 72.65,-87.55 73.93,-91.37 75.45,-94.96 76.98,-98.56 78.91,-101.31 80.85,-104.06 82.42,-105.86 83.98,-107.67 85.79,-108.04 87.60,-108.42 87.73,-108.57 87.85,-108.72 88.01,-108.84 88.17,-108.95 88.35,-109.03 88.53,-109.10 88.72,-109.13 88.91,-109.16 89.11,-109.15 89.30,-109.13 89.49,-109.07 89.67,-109.00 89.84,-108.90 90.00,-108.79 90.14,-108.65 90.27,-108.51 90.37,-108.34 90.46,-108.17 90.52,-107.98 90.57,-107.80 90.58,-107.60 90.58,-107.40 90.54,-107.21 90.50,-107.02 90.42,-106.85 90.33,-106.67 90.14,-106.06 89.94,-105.45 88.91,-103.93 87.88,-102.42 86.96,-100.11 86.05,-97.81 84.68,-94.73 83.32,-91.66 81.67,-88.35 80.03,-85.05 78.46,-81.85 76.88,-78.66 74.76,-75.07 72.63,-71.49 69.99,-67.77 67.36,-64.06 64.27,-59.99 61.18,-55.93 57.82,-51.82 54.46,-47.72 51.15,-43.44 47.84,-39.15 44.68,-35.25 41.52,-31.34 37.99,-27.64 34.46,-23.93 30.06,-19.90 25.66,-15.87 20.74,-11.84 15.82,-7.82 11.17,-4.54 6.52,-1.26 3.58,0.08 0.63,1.42 0.45,1.48 0.27,1.53 0.08,1.54 -0.10,1.55 -0.28,1.52 -0.47,1.48 -0.64,1.41 -0.81,1.33 -0.96,1.21 -1.10,1.09 -1.22,0.95 -1.34,0.80 -1.41,0.62 -1.49,0.45 -1.52,0.27 -1.55,0.08 -1.54,-0.10 -1.53,-0.28 -1.47,-0.46 -1.42,-0.64 -1.32,-0.80 -1.22,-0.96 -1.09,-1.10 -0.95,-1.23 -0.79,-1.33 -0.63,-1.42 -0.63,-1.42 L -0.63,-1.42 Z"></path></g><g transform="translate(199.71417236328125 148.21456909179682) rotate(0 4.571380615234375 -25.142913818359375)" stroke="none"><path fill="#000000" d="M -1.06,2.12 Q -1.06,2.12 -2.37,1.46 -3.69,0.81 -5.13,0.22 -6.58,-0.37 -8.12,-1.42 -9.65,-2.47 -11.15,-3.56 -12.65,-4.65 -14.04,-5.83 -15.42,-7.00 -16.99,-8.15 -18.55,-9.29 -19.33,-11.35 -20.11,-13.42 -20.31,-15.17 -20.51,-16.92 -20.56,-18.63 -20.60,-20.34 -20.60,-22.05 -20.59,-23.76 -20.62,-25.14 -20.66,-26.52 -20.65,-28.10 -20.64,-29.68 -20.26,-31.56 -19.88,-33.44 -18.94,-35.37 -18.00,-37.29 -16.88,-39.06 -15.76,-40.83 -13.73,-42.40 -11.71,-43.97 -9.22,-45.53 -6.74,-47.09 -3.97,-48.42 -1.21,-49.75 0.81,-51.19 2.83,-52.64 5.12,-53.98 7.41,-55.31 9.41,-56.21 11.41,-57.12 13.24,-57.87 15.07,-58.61 16.44,-59.31 17.80,-60.00 19.21,-60.41 20.61,-60.82 22.28,-61.17 23.96,-61.51 26.03,-60.92 28.11,-60.33 28.79,-58.69 29.48,-57.05 29.55,-55.06 29.62,-53.07 29.53,-50.61 29.44,-48.16 29.36,-45.81 29.27,-43.46 29.21,-40.82 29.14,-38.18 29.09,-35.42 29.03,-32.65 28.99,-29.83 28.95,-27.02 28.59,-23.77 28.23,-20.53 27.73,-17.82 27.24,-15.11 27.03,-13.05 26.82,-10.99 26.85,-9.76 26.89,-8.53 26.56,-7.39 26.23,-6.25 25.75,-4.71 25.27,-3.18 23.83,-1.82 22.39,-0.46 21.04,0.44 19.68,1.36 17.95,2.18 16.21,3.01 14.30,3.50 12.40,3.98 10.86,4.68 9.31,5.37 8.07,6.27 6.82,7.17 5.79,7.72 4.76,8.28 3.83,9.17 2.90,10.05 1.38,10.37 -0.12,10.68 -0.26,10.66 -0.40,10.64 -0.64,10.90 -0.88,11.16 -1.17,11.36 -1.47,11.55 -1.80,11.67 -2.13,11.79 -2.49,11.83 -2.84,11.87 -3.19,11.82 -3.54,11.77 -3.87,11.64 -4.20,11.51 -4.49,11.30 -4.77,11.09 -5.00,10.82 -5.23,10.55 -5.39,10.24 -5.55,9.92 -5.63,9.58 -5.71,9.23 -5.70,8.88 -5.70,8.52 -5.61,8.18 -5.52,7.84 -5.35,7.53 -5.18,7.22 -3.78,3.23 -2.37,-0.74 -2.19,-1.10 -2.01,-1.46 -1.73,-1.74 -1.44,-2.03 -1.08,-2.20 -0.71,-2.38 -0.31,-2.43 0.08,-2.49 0.47,-2.41 0.87,-2.33 1.22,-2.13 1.57,-1.93 1.83,-1.63 2.10,-1.33 2.26,-0.96 2.42,-0.58 2.45,-0.18 2.48,0.21 2.38,0.60 2.28,0.99 2.06,1.33 1.84,1.67 1.53,1.92 1.21,2.17 0.83,2.31 0.45,2.45 0.05,2.45 -0.34,2.46 -0.73,2.34 -1.11,2.22 -1.44,1.99 -1.77,1.75 -2.00,1.42 -2.23,1.09 -2.35,0.70 -2.47,0.32 -2.45,-0.07 -2.44,-0.48 -2.30,-0.86 -2.16,-1.23 -1.90,-1.55 -1.65,-1.86 -1.31,-2.07 -0.97,-2.29 -0.58,-2.39 -0.18,-2.48 0.21,-2.45 0.61,-2.41 0.98,-2.25 1.35,-2.09 1.65,-1.82 1.95,-1.55 2.14,-1.19 2.34,-0.84 2.41,-0.45 2.49,-0.05 2.43,0.34 2.37,0.74 2.37,0.74 2.37,0.74 0.98,5.69 -0.40,10.64 -0.64,10.90 -0.88,11.16 -1.17,11.36 -1.47,11.55 -1.80,11.67 -2.13,11.79 -2.48,11.83 -2.84,11.87 -3.19,11.82 -3.54,11.77 -3.87,11.64 -4.20,11.51 -4.49,11.30 -4.77,11.09 -5.00,10.82 -5.23,10.55 -5.39,10.24 -5.55,9.92 -5.63,9.58 -5.71,9.23 -5.70,8.88 -5.70,8.52 -5.61,8.18 -5.52,7.84 -5.35,7.53 -5.18,7.22 -3.79,6.41 -2.40,5.61 -0.70,5.62 0.99,5.63 2.55,4.56 4.12,3.50 5.64,2.34 7.16,1.18 9.04,0.13 10.92,-0.91 12.43,-1.44 13.94,-1.97 15.31,-2.42 16.68,-2.88 18.51,-3.86 20.34,-4.85 21.31,-5.46 22.27,-6.07 22.96,-7.44 23.64,-8.81 23.84,-10.03 24.04,-11.25 24.23,-13.43 24.42,-15.60 24.86,-18.22 25.30,-20.83 25.59,-23.92 25.89,-27.02 25.85,-29.83 25.80,-32.65 25.74,-35.41 25.69,-38.17 25.60,-40.80 25.52,-43.43 25.40,-45.76 25.27,-48.08 25.09,-50.43 24.91,-52.79 24.59,-54.99 24.26,-57.19 22.81,-57.21 21.36,-57.24 20.24,-57.11 19.12,-56.99 17.64,-56.42 16.15,-55.86 14.38,-55.20 12.60,-54.53 10.75,-53.66 8.90,-52.79 6.76,-51.49 4.62,-50.20 2.42,-48.55 0.21,-46.90 -2.32,-45.57 -4.87,-44.25 -7.14,-42.67 -9.42,-41.08 -10.87,-39.89 -12.32,-38.70 -13.19,-37.06 -14.06,-35.43 -14.71,-33.97 -15.36,-32.52 -15.63,-31.10 -15.90,-29.68 -15.89,-28.12 -15.87,-26.56 -15.87,-25.20 -15.88,-23.85 -15.81,-22.20 -15.75,-20.56 -15.65,-19.02 -15.55,-17.48 -15.42,-16.22 -15.28,-14.96 -14.98,-13.25 -14.68,-11.53 -13.68,-10.91 -12.68,-10.30 -11.44,-9.27 -10.21,-8.25 -8.61,-7.25 -7.02,-6.24 -5.94,-5.46 -4.85,-4.68 -3.20,-4.06 -1.56,-3.44 -0.25,-2.78 1.06,-2.12 1.29,-1.96 1.53,-1.80 1.73,-1.59 1.92,-1.38 2.06,-1.13 2.20,-0.88 2.27,-0.60 2.34,-0.33 2.35,-0.04 2.36,0.23 2.29,0.51 2.23,0.79 2.10,1.05 1.97,1.30 1.79,1.52 1.60,1.74 1.37,1.91 1.14,2.07 0.87,2.18 0.61,2.29 0.32,2.33 0.04,2.37 -0.23,2.34 -0.52,2.31 -0.79,2.21 -1.06,2.12 -1.06,2.12 L -1.06,2.12 Z"></path></g><g transform="translate(86.5714111328125 320.7858581542966) rotate(0 58.5 23)"><text x="0" y="32" font-family="Virgil, Segoe UI Emoji" font-size="36px" fill="#000000" text-anchor="start" style="white-space: pre;" direction="ltr">Bruger</text></g><g stroke-linecap="round"><g transform="translate(129.99981689453125 413.3572387695312) rotate(0 0.8294709498023849 489.598319237679)"><path d="M2.1 -1.96 C2.39 161.22, 0.02 817.34, -0.47 981.15" stroke="#000000" stroke-width="1.5" fill="none" stroke-dasharray="8 9"></path></g></g><g stroke-linecap="round"><g transform="translate(741.4559294408223 396.9017417974771) rotate(0 0.32535550694115045 490.3882950954137)"><path d="M-0.03 -2.37 C-0.34 161.14, 1.06 818.94, 0.65 983.14" stroke="#000000" stroke-width="1.5" fill="none" stroke-dasharray="8 9"></path></g></g><g stroke-linecap="round"><g transform="translate(1346.0274626439468 405.1873863287272) rotate(0 1.3881574802101113 489.54914128258804)"><path d="M2.34 -1.36 C2.04 162.01, 0.93 816.59, 0.43 980.46" stroke="#000000" stroke-width="1.5" fill="none" stroke-dasharray="8 9"></path></g></g><g stroke-linecap="round"><g transform="translate(1961.1697966283218 403.18732529357106) rotate(0 -0.208112626522734 489.19481918141224)"><path d="M1.64 -2.59 C1.56 160.52, -1.72 816.82, -2.05 980.98" stroke="#000000" stroke-width="1.5" fill="none" stroke-dasharray="8 9"></path></g></g><g stroke-linecap="round"><g transform="translate(2578.8842741673843 409.47321396544584) rotate(0 0.24516510992248186 489.98365449234825)"><path d="M0.01 0.61 C0.39 163.62, 0.62 816.03, 0.38 979.36" stroke="#000000" stroke-width="1.5" fill="none" stroke-dasharray="8 9"></path></g></g><g transform="translate(10 10) rotate(0 229.5 17.5)"><text x="0" y="25" font-family="Virgil, Segoe UI Emoji" font-size="28px" fill="#000000" text-anchor="start" style="white-space: pre;" direction="ltr">Bruger navigarer til bookingsiden </text></g><g stroke-linecap="round"><g transform="translate(131.1427001953125 455.6430358886717) rotate(0 304.3834805921791 -0.9791159652173747)"><path d="M-0.83 0.07 C100.22 -0.43, 505.69 -1.73, 607.27 -2.03 M0.94 -0.93 C102.29 -1.4, 508.38 -0.99, 609.59 -0.96" stroke="#000000" stroke-width="1" fill="none"></path></g><g transform="translate(131.1427001953125 455.6430358886717) rotate(0 304.3834805921791 -0.9791159652173747)"><path d="M581.52 8.06 C590.63 6.62, 601.9 1.31, 610.63 -1.04 M582.16 9.05 C589.32 6.16, 596.24 3.6, 609.22 -0.37" stroke="#000000" stroke-width="1" fill="none"></path></g><g transform="translate(131.1427001953125 455.6430358886717) rotate(0 304.3834805921791 -0.9791159652173747)"><path d="M581.53 -12.46 C590.8 -6.04, 602.07 -3.5, 610.63 -1.04 M582.17 -11.47 C589.14 -8.68, 596.06 -5.55, 609.22 -0.37" stroke="#000000" stroke-width="1" fill="none"></path></g></g><g transform="translate(352.85693359375 415.7144470214843) rotate(0 58.5 16.5)"><text x="0" y="27" font-family="Cascadia, Segoe UI Emoji" font-size="28px" fill="#000000" text-anchor="start" style="white-space: pre;" direction="ltr">OnGet()</text></g><g stroke-linecap="round"><g transform="translate(742.5714111328125 534.5002136230466) rotate(0 -304.619837460667 1.6194175936281567)"><path d="M-0.18 0.63 C-101.76 1.16, -507.54 2.28, -609.06 2.61" stroke="#000000" stroke-width="1.5" fill="none" stroke-dasharray="8 9"></path></g><g transform="translate(742.5714111328125 534.5002136230466) rotate(0 -304.619837460667 1.6194175936281567)"><path d="M-579.85 -7.61 C-591.79 -4.62, -601.26 -1.4, -610 2.28" stroke="#000000" stroke-width="1.5" fill="none"></path></g><g transform="translate(742.5714111328125 534.5002136230466) rotate(0 -304.619837460667 1.6194175936281567)"><path d="M-579.79 12.92 C-591.65 9.01, -601.14 5.33, -610 2.28" stroke="#000000" stroke-width="1.5" fill="none"></path></g></g><g transform="translate(323.14263916015625 501.57156372070295) rotate(0 132.5 16.5)"><text x="0" y="27" font-family="Cascadia, Segoe UI Emoji" font-size="28px" fill="#000000" text-anchor="start" style="white-space: pre;" direction="ltr">returnerer siden</text></g><g stroke-linecap="round"><g transform="translate(135.901919798446 676.7137407969681) rotate(0 304.0226553503935 -0.3184796891641781)"><path d="M1.12 -0.61 C102.36 -0.7, 506.61 -0.29, 607.79 -0.53 M0.25 1.69 C101.28 1.25, 505.52 -1.84, 606.74 -2.33" stroke="#000000" stroke-width="1" fill="none"></path></g><g transform="translate(135.901919798446 676.7137407969681) rotate(0 304.0226553503935 -0.3184796891641781)"><path d="M577.6 7.77 C588.92 4.74, 595.67 1.8, 608.37 -3.52 M579.5 8.59 C585.18 5.16, 591.44 3.85, 606.19 -1.42" stroke="#000000" stroke-width="1" fill="none"></path></g><g transform="translate(135.901919798446 676.7137407969681) rotate(0 304.0226553503935 -0.3184796891641781)"><path d="M577.47 -12.75 C588.83 -9.01, 595.63 -5.18, 608.37 -3.52 M579.37 -11.93 C584.94 -10.82, 591.23 -7.59, 606.19 -1.42" stroke="#000000" stroke-width="1" fill="none"></path></g></g><g transform="translate(357.6161531968835 636.7851519297806) rotate(0 124 16.499999999999943)"><text x="0" y="27" font-family="Cascadia, Segoe UI Emoji" font-size="28px" fill="#000000" text-anchor="start" style="white-space: pre;" direction="ltr">Udfylder formen</text></g><g stroke-linecap="round"><g transform="translate(135.330630735946 756.4280352305623) rotate(0 303.5555361790722 -0.4938199140131019)"><path d="M0.45 1.02 C101.75 0.68, 506.44 -1.64, 607.88 -2.01 M-0.77 0.51 C100.36 0.3, 505.26 -0.85, 606.87 -0.93" stroke="#000000" stroke-width="1" fill="none"></path></g><g transform="translate(135.330630735946 756.4280352305623) rotate(0 303.5555361790722 -0.4938199140131019)"><path d="M580.4 9.18 C585.89 7.91, 595.85 3.69, 606.75 -2.78 M579.23 9.04 C588.85 5.44, 599.88 0.4, 607.26 -1.56" stroke="#000000" stroke-width="1" fill="none"></path></g><g transform="translate(135.330630735946 756.4280352305623) rotate(0 303.5555361790722 -0.4938199140131019)"><path d="M580.36 -11.34 C585.87 -6.31, 595.84 -4.24, 606.75 -2.78 M579.19 -11.48 C588.95 -7.11, 600 -4.18, 607.26 -1.56" stroke="#000000" stroke-width="1" fill="none"></path></g></g><g transform="translate(255.901919798446 716.4994463633748) rotate(0 189.4999999999999 16.5)"><text x="0" y="27" font-family="Cascadia, Segoe UI Emoji" font-size="28px" fill="#000000" text-anchor="start" style="white-space: pre;" direction="ltr">Trykker på book knappen</text></g><g stroke-linecap="round"><g transform="translate(737.6915780480435 812.190781341917) rotate(0 304.53596728827324 -0.28824137839956165)"><path d="M1 -0.84 C102.45 -1.26, 508 -1.85, 609 -1.91 M0.07 1.33 C101.42 1, 507.03 -0.57, 608.58 -0.77" stroke="#000000" stroke-width="1" fill="none"></path></g><g transform="translate(737.6915780480435 812.190781341917) rotate(0 304.53596728827324 -0.28824137839956165)"><path d="M579.02 11.24 C588.34 4.25, 598.79 0.66, 609.2 -0.52 M579.64 10.25 C589.86 4.89, 601.45 1.28, 608.65 -0.91" stroke="#000000" stroke-width="1" fill="none"></path></g><g transform="translate(737.6915780480435 812.190781341917) rotate(0 304.53596728827324 -0.28824137839956165)"><path d="M578.95 -9.28 C588.39 -9.53, 598.87 -6.38, 609.2 -0.52 M579.58 -10.27 C589.86 -8.32, 601.47 -4.6, 608.65 -0.91" stroke="#000000" stroke-width="1" fill="none"></path></g></g><g transform="translate(959.405811446481 772.2621924747295) rotate(0 124 16.5)"><text x="0" y="27" font-family="Cascadia, Segoe UI Emoji" font-size="28px" fill="#000000" text-anchor="start" style="white-space: pre;" direction="ltr">kalder OnPost()</text></g><g stroke-linecap="round" transform="translate(1823.427490234374 269.6430969238282) rotate(0 142.857177734375 58.2857666015625)"><path d="M1.29 1.07 C74.69 -3.85, 148.86 -2.78, 287.08 2.56 M-0.49 0.92 C66.2 -0.8, 133.21 -1.42, 285.14 -1.04 M289.01 -2.44 C280.3 30.06, 283.8 63.21, 283.79 115.49 M284.18 -1.79 C282.84 46.01, 282.64 90.74, 285.5 117.99 M287.79 116.96 C220.39 119.21, 151.58 119.05, -0.09 116.97 M286.96 115.15 C179.58 119.2, 70.24 117.52, 1.04 118.05 M-0.21 115.07 C0.29 83.44, -1.05 48.48, -3.13 -3.61 M1.77 114.69 C-0.38 91.66, 2.31 66.92, 1.23 -0.89" stroke="#000000" stroke-width="1" fill="none"></path></g><g transform="translate(1874.284667968749 281.9288635253907) rotate(0 92 46)"><text x="92" y="32" font-family="Virgil, Segoe UI Emoji" font-size="36px" fill="#000000" text-anchor="middle" style="white-space: pre;" direction="ltr">Razor</text><text x="92" y="78" font-family="Virgil, Segoe UI Emoji" font-size="36px" fill="#000000" text-anchor="middle" style="white-space: pre;" direction="ltr">FrameWork</text></g><g stroke-linecap="round" transform="translate(2436.3924560546875 287.2855682373044) rotate(0 142.85717773437477 58.2857666015625)"><path d="M2.06 1.71 C61.4 -1.17, 120.17 -2.02, 286.64 0.59 M-1.14 0.55 C105.87 -3.3, 215.5 -2.1, 284.34 -0.63 M284.03 -1.74 C290.44 22.71, 288.43 49.63, 284.38 116.13 M286.72 -0.6 C288.29 36.18, 288.92 69.01, 285.51 118.02 M283.1 118.54 C206.38 113.5, 128.21 115.28, 1.42 119.53 M284.55 117.9 C225.53 117, 162.67 115.48, 0.53 115.91 M-2.53 114.61 C3.41 83.16, 1.85 54.57, -0.91 -3.46 M0.05 115.23 C1.36 89.9, 2.22 63.62, -0.32 -1.62" stroke="#000000" stroke-width="1" fill="none"></path></g><g transform="translate(2528.2496337890625 322.5713348388669) rotate(0 51 23)"><text x="51" y="32" font-family="Virgil, Segoe UI Emoji" font-size="36px" fill="#000000" text-anchor="middle" style="white-space: pre;" direction="ltr">Event</text></g><g stroke-linecap="round"><g transform="translate(1348.8916450164138 848.6554917423005) rotate(0 303.894205353409 -0.8054982810826914)"><path d="M-0.5 -0.19 C100.88 -0.47, 506.77 -1.49, 608.29 -1.49 M1.44 -1.34 C102.68 -1.46, 506.38 -0.02, 607.49 -0.13" stroke="#000000" stroke-width="1" fill="none"></path></g><g transform="translate(1348.8916450164138 848.6554917423005) rotate(0 303.894205353409 -0.8054982810826914)"><path d="M578.97 10.57 C587.22 8.1, 597.93 4.62, 607.3 0.16 M580.28 10.06 C585.43 7.39, 593.16 4.6, 607.82 -0.96" stroke="#000000" stroke-width="1" fill="none"></path></g><g transform="translate(1348.8916450164138 848.6554917423005) rotate(0 303.894205353409 -0.8054982810826914)"><path d="M579 -9.95 C587.27 -6.23, 597.97 -3.51, 607.3 0.16 M580.31 -10.46 C585.48 -8.05, 593.2 -5.76, 607.82 -0.96" stroke="#000000" stroke-width="1" fill="none"></path></g></g><g transform="translate(1570.6058784148513 808.726902875113) rotate(0 116 16.5)"><text x="0" y="27" font-family="Cascadia, Segoe UI Emoji" font-size="28px" fill="#000000" text-anchor="start" style="white-space: pre;" direction="ltr">Framework Magi</text></g><g stroke-linecap="round"><g transform="translate(1966.9623620294033 879.0974980582464) rotate(0 303.465190448421 -1.3193733061360717)"><path d="M0.03 0.17 C101.59 0.22, 507.18 -0.48, 608.34 -0.84 M-1.41 -0.79 C100.11 -1.02, 505.78 -2.75, 607.57 -2.81" stroke="#000000" stroke-width="1" fill="none"></path></g><g transform="translate(1966.9623620294033 879.0974980582464) rotate(0 303.465190448421 -1.3193733061360717)"><path d="M579.69 8.1 C586.09 3.61, 590.21 1.81, 607.32 -4.62 M579.93 7.43 C588.68 3.95, 598.71 0.52, 608.45 -2.47" stroke="#000000" stroke-width="1" fill="none"></path></g><g transform="translate(1966.9623620294033 879.0974980582464) rotate(0 303.465190448421 -1.3193733061360717)"><path d="M579.63 -12.42 C585.85 -12.48, 589.98 -9.85, 607.32 -4.62 M579.88 -13.09 C588.61 -9.24, 598.66 -5.35, 608.45 -2.47" stroke="#000000" stroke-width="1" fill="none"></path></g></g><g transform="translate(2140.6765954278408 839.1689091910589) rotate(0 148.5 16.5)"><text x="0" y="27" font-family="Cascadia, Segoe UI Emoji" font-size="28px" fill="#000000" text-anchor="start" style="white-space: pre;" direction="ltr">Laver Event Objekt</text></g><g stroke-linecap="round"><g transform="translate(3063.4684579369527 410.2307314939796) rotate(0 -1.2747702379951988 490.7769172139464)"><path d="M-1.72 2.63 C-2.2 165.84, -0.58 815.88, -0.75 978.93" stroke="#000000" stroke-width="1.5" fill="none" stroke-dasharray="8 9"></path></g></g><g stroke-linecap="round"><g transform="translate(2570.61928814426 948.5186712931841) rotate(0 -304.7950558044017 1.2547471739352432)"><path d="M-0.66 -0.33 C-102.31 0.33, -507.4 2.25, -608.93 2.84" stroke="#000000" stroke-width="1.5" fill="none" stroke-dasharray="8 9"></path></g><g transform="translate(2570.61928814426 948.5186712931841) rotate(0 -304.7950558044017 1.2547471739352432)"><path d="M-581.34 -7.22 C-592.61 -4.97, -602.71 -1.63, -609.27 4.24" stroke="#000000" stroke-width="1.5" fill="none"></path></g><g transform="translate(2570.61928814426 948.5186712931841) rotate(0 -304.7950558044017 1.2547471739352432)"><path d="M-581.24 13.3 C-592.35 7.72, -602.49 3.23, -609.27 4.24" stroke="#000000" stroke-width="1.5" fill="none"></path></g></g><g transform="translate(2150.047815976291 915.5900213908403) rotate(0 140.5 16.5)"><text x="0" y="27" font-family="Cascadia, Segoe UI Emoji" font-size="28px" fill="#000000" text-anchor="start" style="white-space: pre;" direction="ltr">returnerer objekt</text></g><g stroke-linecap="round"><g transform="translate(1959.7136840820308 1014.5000305175779) rotate(0 44.96719910115144 44.41880913384887)"><path d="M-0.12 -0.44 C13.61 -0.38, 68.6 -14.85, 82.05 0.22 C95.51 15.28, 94.43 74.6, 80.59 89.94 C66.75 105.28, 12.57 91.91, -0.97 92.25 M-1.64 -1.72 C12.04 -2.02, 68.05 -16.75, 81.58 -1.79 C95.11 13.17, 93.34 72.18, 79.53 88.01 C65.73 103.84, 11.83 92.52, -1.23 93.19" stroke="#000000" stroke-width="1" fill="none"></path></g><g transform="translate(1959.7136840820308 1014.5000305175779) rotate(0 44.96719910115144 44.41880913384887)"><path d="M26.93 86.63 C20.16 86.36, 13.26 87.87, -1.76 92.11 M26.71 85.45 C19.73 87.22, 13.34 89.39, -2.09 92.36" stroke="#000000" stroke-width="1" fill="none"></path></g><g transform="translate(1959.7136840820308 1014.5000305175779) rotate(0 44.96719910115144 44.41880913384887)"><path d="M25.36 107.09 C19.05 101.25, 12.57 97.2, -1.76 92.11 M25.14 105.91 C18.57 102.57, 12.58 99.63, -2.09 92.36" stroke="#000000" stroke-width="1" fill="none"></path></g></g><g transform="translate(1980.2850952148433 1042.3570861816404) rotate(0 222.5 16.5)"><text x="0" y="27" font-family="Cascadia, Segoe UI Emoji" font-size="28px" fill="#000000" text-anchor="start" style="white-space: pre;" direction="ltr">sætter properties på objekt</text></g><g stroke-linecap="round"><g transform="translate(1956.7940182067446 1146.9740240048613) rotate(0 -304.5053578160703 1.6663419149816718)"><path d="M0.27 0.61 C-101.43 1.21, -507.55 2.37, -609.28 2.72" stroke="#000000" stroke-width="1.5" fill="none" stroke-dasharray="8 9"></path></g><g transform="translate(1956.7940182067446 1146.9740240048613) rotate(0 -304.5053578160703 1.6663419149816718)"><path d="M-580.1 -7.86 C-592.98 -5.34, -603.6 -1.11, -610.74 3.83" stroke="#000000" stroke-width="1.5" fill="none"></path></g><g transform="translate(1956.7940182067446 1146.9740240048613) rotate(0 -304.5053578160703 1.6663419149816718)"><path d="M-580.04 12.66 C-592.79 7.46, -603.44 3.96, -610.74 3.83" stroke="#000000" stroke-width="1.5" fill="none"></path></g></g><g transform="translate(1536.2225460387758 1114.0453741025176) rotate(0 140.5 16.5)"><text x="0" y="27" font-family="Cascadia, Segoe UI Emoji" font-size="28px" fill="#000000" text-anchor="start" style="white-space: pre;" direction="ltr">returnerer objekt</text></g><g stroke-linecap="round"><g transform="translate(1344.8564147949214 1219.0714416503904) rotate(0 860.1343801787264 -0.377187452465364)"><path d="M-0.62 0.84 C285.74 0.68, 1432.09 -1.27, 1718.8 -1.59 M1.26 0.23 C287.91 0.3, 1434.65 -0.29, 1720.89 -0.29" stroke="#000000" stroke-width="1" fill="none"></path></g><g transform="translate(1344.8564147949214 1219.0714416503904) rotate(0 860.1343801787264 -0.377187452465364)"><path d="M1694.09 7.99 C1702 5.9, 1712.81 2.71, 1719.28 1.29 M1691.81 9.32 C1701.05 7.3, 1708.34 4.83, 1720.71 -0.57" stroke="#000000" stroke-width="1" fill="none"></path></g><g transform="translate(1344.8564147949214 1219.0714416503904) rotate(0 860.1343801787264 -0.377187452465364)"><path d="M1694.08 -12.54 C1701.89 -7.35, 1712.7 -3.26, 1719.28 1.29 M1691.8 -11.2 C1700.89 -7.38, 1708.18 -4, 1720.71 -0.57" stroke="#000000" stroke-width="1" fill="none"></path></g></g><g transform="translate(2247.7135925292964 1177.0001525878904) rotate(0 296.5 16.5)"><text x="0" y="27" font-family="Cascadia, Segoe UI Emoji" font-size="28px" fill="#000000" text-anchor="start" style="white-space: pre;" direction="ltr">Kalder CreateEvent() på EventService</text></g><g stroke-linecap="round"><g transform="translate(3677.2743735094796 414.8657524637877) rotate(0 -0.49620450159636675 490.0411235041914)"><path d="M-2.18 -0.62 C-1.52 163, 1.42 816.97, 1.17 980.7" stroke="#000000" stroke-width="1.5" fill="none" stroke-dasharray="8 9"></path></g></g><g stroke-linecap="round"><g transform="translate(3065.9625134090015 1247.5228669537532) rotate(0 303.8087344385681 -0.6734704115807517)"><path d="M-0.42 0.8 C101.06 0.89, 506.82 -0.14, 608.04 -0.41 M1.56 0.18 C102.96 0, 505.84 -2.23, 607.11 -2.15" stroke="#000000" stroke-width="1" fill="none"></path></g><g transform="translate(3065.9625134090015 1247.5228669537532) rotate(0 303.8087344385681 -0.6734704115807517)"><path d="M580.29 8.25 C586.73 4.02, 592.54 1.89, 607.61 -2.62 M579.57 7.71 C588.41 4.75, 599.44 1.63, 607.27 -1.65" stroke="#000000" stroke-width="1" fill="none"></path></g><g transform="translate(3065.9625134090015 1247.5228669537532) rotate(0 303.8087344385681 -0.6734704115807517)"><path d="M580.23 -12.27 C586.53 -11.77, 592.35 -9.17, 607.61 -2.62 M579.51 -12.81 C588.4 -8.64, 599.45 -4.62, 607.27 -1.65" stroke="#000000" stroke-width="1" fill="none"></path></g></g><g transform="translate(3239.676746807439 1207.5942780865657) rotate(0 181.5 16.5)"><text x="0" y="27" font-family="Cascadia, Segoe UI Emoji" font-size="28px" fill="#000000" text-anchor="start" style="white-space: pre;" direction="ltr">Kalder SaveJsonEvent()</text></g><g transform="translate(606.5697326660161 197.57180786132795) rotate(0 132.5 16.5)"><text x="0" y="27" font-family="Cascadia, Segoe UI Emoji" font-size="28px" fill="#000000" text-anchor="start" style="white-space: pre;" direction="ltr">BookEvent.cshtml</text></g><g transform="translate(1204.9269104003902 216.57180786132773) rotate(0 157 16.5)"><text x="0" y="27" font-family="Cascadia, Segoe UI Emoji" font-size="28px" fill="#000000" text-anchor="start" style="white-space: pre;" direction="ltr">BookEvent.cshtml.cs</text></g><g transform="translate(2516.069732666015 236.8573913574217) rotate(0 66.5 16.5)"><text x="0" y="27" font-family="Cascadia, Segoe UI Emoji" font-size="28px" fill="#000000" text-anchor="start" style="white-space: pre;" direction="ltr">Event.cs</text></g><g transform="translate(2935.2124328613277 234.5718688964842) rotate(0 124 16.5)"><text x="0" y="27" font-family="Cascadia, Segoe UI Emoji" font-size="28px" fill="#000000" text-anchor="start" style="white-space: pre;" direction="ltr">EventService.cs</text></g><g transform="translate(3510.6416320800777 247.14346313476545) rotate(0 157 16.5)"><text x="0" y="27" font-family="Cascadia, Segoe UI Emoji" font-size="28px" fill="#000000" text-anchor="start" style="white-space: pre;" direction="ltr">JsonEventService.cs</text></g><g transform="translate(1472.8562622070312 47.64279174804693) rotate(0 188.5 20.5)"><text x="0" y="33" font-family="Helvetica, Segoe UI Emoji" font-size="36px" fill="#000000" text-anchor="start" style="white-space: pre;" direction="ltr">BOOK EVENT sekvens</text></g><g stroke-linecap="round" transform="translate(1457.996429443359 25.92880249023426) rotate(0 204.00009155273438 39.428619384765625)"><path d="M5.25 4.56 C5.25 4.56, 5.25 4.56, 5.25 4.56 M5.25 4.56 C5.25 4.56, 5.25 4.56, 5.25 4.56 M3.02 13.22 C4.68 9.87, 7.19 7.6, 12.2 2.66 M3.02 13.22 C4.48 11.71, 7.05 9.35, 12.2 2.66 M1.44 21.13 C4.55 16.67, 8.78 11.82, 19.81 0 M1.44 21.13 C5.81 14.56, 10.83 9.54, 19.81 0 M1.84 26.77 C8.95 19.35, 14.53 10.95, 24.8 0.36 M1.84 26.77 C11.08 16.14, 19.77 5.97, 24.8 0.36 M1.58 33.17 C12.1 21.18, 20.24 12.11, 30.44 -0.04 M1.58 33.17 C10.66 24.96, 18.74 13.82, 30.44 -0.04 M1.32 39.57 C8.79 27.63, 17.41 19.32, 35.43 0.32 M1.32 39.57 C11.61 28.58, 21.69 17.66, 35.43 0.32 M1.71 45.21 C17.34 26.68, 32.94 11.47, 41.07 -0.07 M1.71 45.21 C15.75 28.12, 31.41 11.56, 41.07 -0.07 M1.45 51.61 C10.07 41.34, 19.25 29.19, 46.06 0.29 M1.45 51.61 C12.13 39.26, 23.32 25.52, 46.06 0.29 M-0.12 59.52 C14.56 43.97, 27.28 27.3, 51.7 -0.1 M-0.12 59.52 C19.32 37.22, 38.26 15.57, 51.7 -0.1 M0.93 64.41 C21.38 41.82, 42.38 18.39, 56.69 0.26 M0.93 64.41 C16.68 46.6, 30.45 30.17, 56.69 0.26 M2.63 68.54 C25.89 43.77, 45.21 19.68, 62.33 -0.14 M2.63 68.54 C20.31 49.61, 37.57 29.15, 62.33 -0.14 M5 71.92 C18.6 58.19, 33.89 39.92, 67.32 0.22 M5 71.92 C28.48 46.44, 50.49 21.55, 67.32 0.22 M7.36 75.3 C33.59 48.13, 58.71 18.32, 72.96 -0.17 M7.36 75.3 C31.19 47.33, 55.34 20.57, 72.96 -0.17 M10.38 77.92 C28.96 57.37, 43.22 38.23, 77.95 0.19 M10.38 77.92 C29.59 55.5, 48.62 33.44, 77.95 0.19 M15.36 78.28 C29.74 61.48, 45.8 42.71, 83.59 -0.21 M15.36 78.28 C38.99 50.41, 64.61 22.26, 83.59 -0.21 M20.35 78.64 C41.42 53.36, 63.02 28.29, 88.58 0.15 M20.35 78.64 C35.89 59.3, 54.33 40.31, 88.58 0.15 M25.99 78.25 C44.62 54.78, 63.92 31.84, 94.22 -0.24 M25.99 78.25 C50.19 49.36, 75.51 22.64, 94.22 -0.24 M30.98 78.61 C52.76 50.38, 78.69 21.86, 99.21 0.12 M30.98 78.61 C47.67 58.01, 64.97 39.32, 99.21 0.12 M36.62 78.21 C60.06 51.58, 84.18 21.72, 104.2 0.48 M36.62 78.21 C58.52 52.22, 82.9 25.02, 104.2 0.48 M41.61 78.57 C60.67 53.87, 85.18 30.94, 109.84 0.08 M41.61 78.57 C61.52 56.13, 80.03 32.28, 109.84 0.08 M46.6 78.93 C71 52.43, 94.75 23.9, 114.83 0.44 M46.6 78.93 C70.67 51.13, 96.56 21.77, 114.83 0.44 M52.24 78.54 C65.1 62.28, 80.68 43.09, 120.47 0.05 M52.24 78.54 C77.81 49.94, 103.82 19.72, 120.47 0.05 M57.23 78.9 C78.52 52.25, 100.6 28.38, 125.46 0.41 M57.23 78.9 C73 60.43, 87.42 43.33, 125.46 0.41 M62.87 78.5 C85.25 53.39, 109.48 27.78, 131.1 0.01 M62.87 78.5 C83.02 53.88, 104.33 30.82, 131.1 0.01 M67.86 78.86 C85.97 58.01, 104.24 34.33, 136.09 0.37 M67.86 78.86 C82.04 62.61, 96.72 46.73, 136.09 0.37 M73.5 78.47 C96.22 49.58, 120.05 24.52, 141.73 -0.02 M73.5 78.47 C94.93 54.82, 115.36 32.52, 141.73 -0.02 M78.49 78.83 C105.21 49.91, 132.46 20.89, 146.72 0.34 M78.49 78.83 C99.37 56.61, 119.31 34.01, 146.72 0.34 M84.13 78.43 C103.54 57.88, 118.12 40.1, 152.36 -0.05 M84.13 78.43 C108.3 49.64, 135.22 20.23, 152.36 -0.05 M89.12 78.79 C114.3 53, 137.4 25.57, 157.35 0.31 M89.12 78.79 C113.7 49.96, 139.55 20.45, 157.35 0.31 M94.76 78.4 C108.94 59.25, 124.48 41.86, 162.99 -0.09 M94.76 78.4 C116.25 52.78, 140.19 25.37, 162.99 -0.09 M99.75 78.76 C113.92 61.14, 127.41 45.54, 167.98 0.27 M99.75 78.76 C115.16 59.55, 131.64 41.26, 167.98 0.27 M105.39 78.37 C125.98 53.24, 151.27 29.72, 173.62 -0.12 M105.39 78.37 C119.29 62.75, 134.79 46.51, 173.62 -0.12 M110.38 78.73 C136 48.79, 163.82 17.27, 178.61 0.24 M110.38 78.73 C137.17 45.99, 163.99 15.18, 178.61 0.24 M116.02 78.33 C129.95 60.41, 146.29 42.35, 184.25 -0.16 M116.02 78.33 C131.33 61.37, 145.78 44.56, 184.25 -0.16 M121.01 78.69 C134.65 62.49, 148.25 46.03, 189.24 0.2 M121.01 78.69 C137.63 59.09, 153.7 41.25, 189.24 0.2 M126.65 78.3 C146.29 53.45, 169.44 30.03, 194.23 0.56 M126.65 78.3 C150.84 49, 177.81 19.71, 194.23 0.56 M131.64 78.66 C157.93 50.97, 182.16 19.51, 199.87 0.17 M131.64 78.66 C150.59 58.36, 168.25 36.63, 199.87 0.17 M136.63 79.02 C160.75 52.23, 181.95 26.65, 204.86 0.53 M136.63 79.02 C160.2 53.32, 182.38 26.5, 204.86 0.53 M142.27 78.62 C162.42 55.93, 184.08 30.76, 210.5 0.13 M142.27 78.62 C161.43 57.02, 179.93 33.87, 210.5 0.13 M147.26 78.98 C173.27 49.65, 196.93 23.21, 215.49 0.49 M147.26 78.98 C169.42 52.85, 191.22 27.65, 215.49 0.49 M152.9 78.59 C168.14 60.42, 180.89 45.57, 221.13 0.1 M152.9 78.59 C167.04 62.55, 182.55 44.73, 221.13 0.1 M157.89 78.95 C176.35 59.92, 192.37 41.06, 226.12 0.46 M157.89 78.95 C182.72 50.73, 208.9 21.85, 226.12 0.46 M163.53 78.55 C176.66 63.65, 191.4 48.01, 231.76 0.06 M163.53 78.55 C181.14 59.68, 198.46 39.37, 231.76 0.06 M168.52 78.91 C192.68 50.96, 216.75 22.44, 236.75 0.42 M168.52 78.91 C188.45 56.41, 209.37 32.8, 236.75 0.42 M174.16 78.52 C200.82 47.52, 228.09 19.07, 242.39 0.03 M174.16 78.52 C195.68 54.06, 216.96 29.2, 242.39 0.03 M179.15 78.88 C194.39 59.08, 210.59 39.09, 247.38 0.39 M179.15 78.88 C204.66 48.29, 230.87 18.53, 247.38 0.39 M184.79 78.48 C210.16 49.57, 235.2 20.92, 253.02 -0.01 M184.79 78.48 C200.44 59.33, 215.59 42.23, 253.02 -0.01 M189.78 78.84 C213.75 52.79, 234.37 26.49, 258.01 0.35 M189.78 78.84 C206.66 60.41, 223.09 40.57, 258.01 0.35 M195.42 78.45 C215.13 52.33, 237.21 31.75, 263.65 -0.04 M195.42 78.45 C216.85 52.65, 238.85 27.5, 263.65 -0.04 M200.41 78.81 C221.38 56.93, 241.49 29.52, 268.64 0.32 M200.41 78.81 C223.23 51.74, 245.04 27.33, 268.64 0.32 M206.05 78.42 C227.9 51.8, 254.68 25.48, 274.28 -0.07 M206.05 78.42 C218.96 61.52, 233.33 46.06, 274.28 -0.07 M211.04 78.78 C229.6 57.28, 247.59 36.99, 279.27 0.29 M211.04 78.78 C231.44 54.5, 252.62 31.98, 279.27 0.29 M216.68 78.38 C239.66 50.41, 263.93 20.26, 284.91 -0.11 M216.68 78.38 C231.53 62.62, 245.29 45.99, 284.91 -0.11 M221.67 78.74 C249.92 46.52, 276.64 14.87, 289.9 0.25 M221.67 78.74 C236.97 61.83, 252.88 44.04, 289.9 0.25 M226.65 79.1 C248.32 53.25, 272.02 23.38, 294.88 0.61 M226.65 79.1 C251.45 51.71, 275.88 22.73, 294.88 0.61 M232.3 78.71 C254.64 55.41, 273.69 32.66, 300.53 0.22 M232.3 78.71 C253.32 53.11, 275.51 28.29, 300.53 0.22 M237.28 79.07 C255.29 56.45, 271.88 39.38, 305.51 0.58 M237.28 79.07 C251.71 62.93, 265.41 46.09, 305.51 0.58 M242.93 78.67 C260.15 61.23, 274.04 41.59, 311.16 0.18 M242.93 78.67 C262.65 55.8, 283.15 33.41, 311.16 0.18 M247.91 79.03 C263.38 61.62, 277.87 44.7, 316.14 0.54 M247.91 79.03 C273.47 48.46, 298.68 20.36, 316.14 0.54 M253.56 78.64 C277.24 51.85, 294.91 29.53, 321.79 0.15 M253.56 78.64 C278.64 48.69, 304.14 19.13, 321.79 0.15 M258.54 79 C276.74 56.3, 296.06 35.91, 326.77 0.51 M258.54 79 C271.81 62.53, 286.89 44.67, 326.77 0.51 M264.19 78.6 C284.7 54.9, 303.42 33.77, 332.42 0.11 M264.19 78.6 C280.1 59.51, 298.17 39.92, 332.42 0.11 M269.17 78.96 C287.58 61.32, 301.3 40.74, 337.4 0.47 M269.17 78.96 C294.75 50.12, 318.1 23.58, 337.4 0.47 M274.82 78.57 C298.21 53.49, 320.09 26.06, 343.05 0.08 M274.82 78.57 C298.98 50.25, 323.91 20.5, 343.05 0.08 M279.8 78.93 C295.38 59.47, 313.4 43.63, 348.03 0.44 M279.8 78.93 C303.64 49.92, 327.86 22.51, 348.03 0.44 M285.45 78.53 C307.74 51.75, 329.64 24.86, 353.68 0.04 M285.45 78.53 C300.63 60.49, 316.4 44.41, 353.68 0.04 M290.43 78.89 C314.04 49.67, 340.94 19.35, 358.66 0.4 M290.43 78.89 C308.19 58.88, 325.42 38.61, 358.66 0.4 M296.08 78.5 C318.67 49.1, 347.03 22.54, 364.31 0.01 M296.08 78.5 C315.64 56.39, 333.37 34.05, 364.31 0.01 M301.06 78.86 C323.71 53.13, 341.85 30.49, 369.29 0.37 M301.06 78.86 C316.04 60.78, 329.96 44.78, 369.29 0.37 M306.71 78.47 C331.44 50.18, 357.83 22.73, 374.94 -0.02 M306.71 78.47 C321.62 61.36, 336.18 42.61, 374.94 -0.02 M311.69 78.83 C325.62 64.02, 338.45 47.72, 379.92 0.34 M311.69 78.83 C332.38 55.47, 350.64 34.57, 379.92 0.34 M316.68 79.19 C337.15 55.48, 359.5 31.19, 384.91 0.7 M316.68 79.19 C340.21 52.28, 362.39 26.39, 384.91 0.7 M322.32 78.79 C334.56 61.93, 349 49.26, 390.56 0.3 M322.32 78.79 C338.17 59.63, 353.13 42.72, 390.56 0.3 M327.31 79.15 C347.87 58.2, 363.44 36.98, 394.89 1.42 M327.31 79.15 C348.06 55.43, 366.64 31.2, 394.89 1.42 M332.95 78.76 C357.8 49.18, 385.55 19.45, 398.56 3.29 M332.95 78.76 C352.78 54.54, 374 30.96, 398.56 3.29 M337.94 79.12 C358.96 56.03, 377.14 36.41, 402.24 5.15 M337.94 79.12 C350.73 65.16, 362.96 48.28, 402.24 5.15 M343.59 78.72 C356.86 63.96, 370.8 48.39, 405.91 7.02 M343.59 78.72 C360.98 58.22, 379.89 38, 405.91 7.02 M348.57 79.08 C368.54 56.12, 386.82 36.81, 406.96 11.91 M348.57 79.08 C370.26 55.28, 389.38 32.94, 406.96 11.91 M354.22 78.69 C367.18 64.76, 377.18 51.53, 408.01 16.8 M354.22 78.69 C367.25 64.37, 379.37 49.08, 408.01 16.8 M359.2 79.05 C375.2 60.8, 389.02 42.23, 409.72 20.93 M359.2 79.05 C369.16 65.7, 380.78 53.54, 409.72 20.93 M364.85 78.65 C378.53 62.64, 394.07 44.83, 409.46 27.33 M364.85 78.65 C378.67 62.16, 394.64 45.02, 409.46 27.33 M369.83 79.01 C381.74 66.55, 392.83 50.22, 409.2 33.73 M369.83 79.01 C381.31 64.78, 393.74 51.92, 409.2 33.73 M375.48 78.62 C384.76 70.31, 392.42 57.66, 409.59 39.37 M375.48 78.62 C383.35 69.11, 390.5 61.22, 409.59 39.37 M380.46 78.98 C390.74 68.42, 403.35 56.31, 409.33 45.77 M380.46 78.98 C390.99 67.38, 400.5 57.41, 409.33 45.77 M386.11 78.58 C396.21 70.53, 401.35 59.02, 409.07 52.17 M386.11 78.58 C394.02 69.27, 399.68 61.74, 409.07 52.17 M389.78 80.45 C395.07 77.27, 399.46 69.94, 409.46 57.81 M389.78 80.45 C397.83 71.43, 404.92 63.3, 409.46 57.81 M397.39 77.79 C401.4 72.95, 402.06 71.28, 408.54 64.96 M397.39 77.79 C399.82 74.33, 403.25 70.18, 408.54 64.96" stroke="#868e96" stroke-width="0.5" fill="none"></path><path d="M19.71 0 M19.71 0 C164.27 -1.68, 309.54 -0.61, 388.29 0 M19.71 0 C159.73 -0.97, 299.54 -1.29, 388.29 0 M388.29 0 C399.71 -0.99, 408.61 4.91, 408 19.71 M388.29 0 C400.61 2.25, 408.8 6.58, 408 19.71 M408 19.71 C406.64 27.63, 409.85 37, 408 59.14 M408 19.71 C408.04 32.55, 407.72 44.64, 408 59.14 M408 59.14 C408.88 71.79, 400.58 79.95, 388.29 78.86 M408 59.14 C406.44 74.04, 401.71 77.96, 388.29 78.86 M388.29 78.86 C291.2 78.27, 193.77 77.91, 19.71 78.86 M388.29 78.86 C269.23 79.28, 151.18 78.88, 19.71 78.86 M19.71 78.86 C6.53 78.33, -0.85 72.85, 0 59.14 M19.71 78.86 C8.6 77.29, 0.39 73.77, 0 59.14 M0 59.14 C-0.08 45.92, -0.55 31.45, 0 19.71 M0 59.14 C-0.03 50.61, 0.36 41.41, 0 19.71 M0 19.71 C1.62 5.38, 5.89 0.33, 19.71 0 M0 19.71 C0.43 4.52, 4.36 -2.2, 19.71 0" stroke="#000000" stroke-width="1" fill="none"></path></g></svg>